<?xml version="1.0" standalone="no"?><!-- Generator: Gravit.io --><svg xmlns="http://www.w3.org/2000/svg" xmlns:xlink="http://www.w3.org/1999/xlink" style="isolation:isolate" viewBox="0 0 903.77 657.14" width="903.77" height="657.14"><defs><clipPath id="_clipPath_4ZFRbli2zlYY0zmLhgsNtxx82JiJGarX"><rect width="903.77" height="657.14"/></clipPath></defs><g clip-path="url(#_clipPath_4ZFRbli2zlYY0zmLhgsNtxx82JiJGarX)"><g id="Group"><g id="Group"><g id="Group"><g opacity="0.1"><path d=" M 52.828 448.01 C 52.828 439.179 72.992 432.01 97.828 432.01 C 122.664 432.01 142.828 439.179 142.828 448.01 C 142.828 456.841 122.664 464.01 97.828 464.01 C 72.992 464.01 52.828 456.841 52.828 448.01 Z " fill="rgb(0,0,0)"/></g><g opacity="0.1"><path d=" M 779.808 514.16 C 779.808 505.329 799.972 498.16 824.808 498.16 C 849.644 498.16 869.808 505.329 869.808 514.16 C 869.808 522.991 849.644 530.16 824.808 530.16 C 799.972 530.16 779.808 522.991 779.808 514.16 Z " fill="rgb(0,0,0)"/></g><path d=" M 822.988 516.43 C 822.988 516.43 834.988 475.59 820.728 445.53 C 814.655 432.96 812.823 418.759 815.508 405.06 C 816.834 398.565 818.752 392.205 821.238 386.06" fill="none" vector-effect="non-scaling-stroke" stroke-width="2" stroke="rgb(83,84,97)" stroke-linejoin="miter" stroke-linecap="butt" stroke-miterlimit="10"/><path d=" M 812.358 367.07 C 812.358 372.07 821.418 386.59 821.418 386.59 C 821.418 386.59 830.478 372.08 830.478 367.07 C 830.478 362.064 826.42 358.005 821.413 358.005 C 816.407 358.005 812.348 362.064 812.348 367.07 L 812.358 367.07 Z " fill="rgb(156,39,176)"/><path d=" M 797.378 394.8 C 800.098 399 815.598 406.26 815.598 406.26 C 815.598 406.26 815.318 389.15 812.598 384.95 C 809.878 380.75 804.268 379.55 800.068 382.27 C 795.868 384.99 794.668 390.6 797.388 394.8 L 797.378 394.8 Z " fill="rgb(156,39,176)"/><path d=" M 798.028 442.17 C 802.498 444.42 819.538 442.87 819.538 442.87 C 819.538 442.87 810.658 428.24 806.188 425.99 C 801.72 423.737 796.271 425.532 794.018 430 C 791.765 434.468 793.56 439.917 798.028 442.17 L 798.028 442.17 Z " fill="rgb(156,39,176)"/><path d=" M 806.598 477.91 C 810.598 480.91 827.678 482.23 827.678 482.23 C 827.678 482.23 821.398 466.31 817.378 463.34 C 813.355 460.363 807.68 461.212 804.703 465.235 C 801.726 469.258 802.575 474.933 806.598 477.91 L 806.598 477.91 Z " fill="rgb(156,39,176)"/><path d=" M 834.618 407.23 C 831.028 410.72 814.298 414.33 814.298 414.33 C 814.298 414.33 818.398 397.72 821.988 394.23 C 825.578 390.742 831.315 390.825 834.803 394.415 C 838.291 398.005 838.208 403.742 834.618 407.23 L 834.618 407.23 Z " fill="rgb(156,39,176)"/><path d=" M 844.108 449.14 C 839.638 451.39 822.598 449.84 822.598 449.84 C 822.598 449.84 831.478 435.21 835.948 433.01 C 840.416 430.757 845.865 432.552 848.118 437.02 C 850.371 441.488 848.576 446.937 844.108 449.19 L 844.108 449.14 Z " fill="rgb(156,39,176)"/><path d=" M 847.738 491.15 C 843.738 494.15 826.658 495.47 826.658 495.47 C 826.658 495.47 832.938 479.55 836.958 476.58 C 840.982 473.603 846.656 474.452 849.633 478.475 C 852.61 482.498 851.762 488.173 847.738 491.15 L 847.738 491.15 Z " fill="rgb(156,39,176)"/><path d=" M 97.848 448.13 C 97.848 448.13 123.538 361.01 93.048 296.81 C 80.248 269.88 76.048 239.66 81.918 210.44 C 84.748 196.581 88.842 183.011 94.148 169.9" fill="none" vector-effect="non-scaling-stroke" stroke-width="2" stroke="rgb(83,84,97)" stroke-linejoin="miter" stroke-linecap="butt" stroke-miterlimit="10"/><path d=" M 75.178 129.35 C 75.178 140.03 94.518 171.01 94.518 171.01 C 94.518 171.01 113.848 140.01 113.848 129.35 C 113.848 118.669 105.189 110.01 94.508 110.01 C 83.827 110.01 75.168 118.669 75.168 129.35 L 75.178 129.35 Z " fill="rgb(156,39,176)"/><path d=" M 43.208 188.52 C 49.018 197.52 82.088 212.98 82.088 212.98 C 82.088 212.98 81.488 176.46 75.678 167.5 C 69.767 158.819 58.008 156.442 49.189 162.146 C 40.37 167.849 37.715 179.548 43.208 188.5 L 43.208 188.52 Z " fill="rgb(156,39,176)"/><path d=" M 44.598 289.64 C 54.138 294.45 90.508 291.13 90.508 291.13 C 90.508 291.13 71.508 259.91 62.018 255.13 C 52.48 250.32 40.849 254.152 36.038 263.69 C 31.228 273.228 35.06 284.86 44.598 289.67 L 44.598 289.64 Z " fill="rgb(156,39,176)"/><path d=" M 62.848 365.91 C 71.438 372.26 107.848 375.13 107.848 375.13 C 107.848 375.13 94.448 341.13 85.848 334.81 C 77.26 328.459 65.149 330.272 58.798 338.86 C 52.447 347.448 54.26 359.559 62.848 365.91 L 62.848 365.91 Z " fill="rgb(156,39,176)"/><path d=" M 122.698 215.01 C 115.038 222.45 79.338 230.16 79.338 230.16 C 79.338 230.16 88.078 194.7 95.738 187.26 C 103.401 179.804 115.657 179.972 123.113 187.635 C 130.569 195.298 130.401 207.554 122.738 215.01 L 122.698 215.01 Z " fill="rgb(156,39,176)"/><path d=" M 142.948 304.52 C 133.408 309.33 97.038 306.01 97.038 306.01 C 97.038 306.01 116.038 274.79 125.528 270.01 C 131.698 266.898 139.06 267.314 144.839 271.102 C 150.619 274.889 153.94 281.473 153.549 288.372 C 153.159 295.271 149.118 301.438 142.948 304.55 L 142.948 304.52 Z " fill="rgb(156,39,176)"/><path d=" M 150.698 394.18 C 142.108 400.53 105.698 403.4 105.698 403.4 C 105.698 403.4 119.098 369.4 127.698 363.08 C 136.286 356.729 148.397 358.542 154.748 367.13 C 161.099 375.718 159.286 387.829 150.698 394.18 L 150.698 394.18 Z " fill="rgb(156,39,176)"/><path d=" M 413.108 233.23 L 357.378 226.01 C 355.118 225.72 353.378 224.86 353.438 224.11 L 353.438 224.11 C 353.538 223.36 355.438 223.01 357.748 223.34 L 413.358 231.39 C 414.888 231.61 416.048 232.19 415.978 232.7 L 415.978 232.7 C 415.908 233.18 414.628 233.43 413.108 233.23 Z " fill="rgb(156,39,176)"/><path d=" M 413.458 234.18 L 357.558 228.4 C 355.288 228.17 353.358 228.59 353.288 229.34 L 353.288 229.34 C 353.218 230.09 355.028 230.88 357.288 231.08 L 413.288 236.08 C 414.828 236.22 416.088 235.92 416.138 235.41 L 416.138 235.41 C 416.178 234.87 414.988 234.34 413.458 234.18 Z " fill="rgb(108,99,255)"/><path d=" M 497.318 276.23 L 553.038 269.01 C 555.298 268.72 557.038 267.86 556.978 267.11 L 556.978 267.11 C 556.878 266.36 554.978 266.01 552.668 266.34 L 497.058 274.39 C 495.528 274.61 494.368 275.19 494.438 275.7 L 494.438 275.7 C 494.508 276.18 495.788 276.43 497.318 276.23 Z " fill="rgb(108,99,255)"/><path d=" M 496.958 277.18 L 552.858 271.4 C 555.128 271.17 557.058 271.59 557.128 272.34 L 557.128 272.34 C 557.198 273.09 555.388 273.88 553.128 274.08 L 497.128 279.08 C 495.588 279.22 494.328 278.92 494.278 278.41 L 494.278 278.41 C 494.238 277.87 495.428 277.34 496.958 277.18 Z " fill="rgb(156,39,176)"/><rect x="299.398" y="336.08" width="13.59" height="194.86" transform="matrix(1,0,0,1,0,0)" fill="rgb(64,65,77)"/><rect x="596.218" y="336.08" width="13.59" height="194.86" transform="matrix(1,0,0,1,0,0)" fill="rgb(64,65,77)"/><path d=" M 294.208 320.22 L 608.208 320.22 C 620.358 320.22 630.208 330.07 630.208 342.22 L 630.208 345.14 L 272.208 345.14 L 272.208 342.22 C 272.208 330.07 282.058 320.22 294.208 320.22 Z " fill="rgb(223,230,245)"/><g opacity="0.1"><path d=" M 293.208 320.22 L 607.208 320.22 C 619.358 320.22 629.208 330.07 629.208 342.22 L 629.208 345.14 L 271.208 345.14 L 271.208 342.22 C 271.208 330.07 281.058 320.22 293.208 320.22 Z " fill="rgb(0,0,0)"/></g><path d=" M 294.208 315.68 L 608.208 315.68 C 620.358 315.68 630.208 325.53 630.208 337.68 L 630.208 340.6 L 272.208 340.6 L 272.208 337.68 C 272.208 325.53 282.058 315.68 294.208 315.68 Z " fill="rgb(223,230,245)"/><path d=" M 424.018 272.63 C 424.018 257.623 436.202 245.44 451.208 245.44 C 466.215 245.44 478.398 257.623 478.398 272.63 C 478.398 287.637 466.215 299.82 451.208 299.82 C 436.202 299.82 424.018 287.637 424.018 272.63 Z " fill="rgb(255,215,124)" vector-effect="non-scaling-stroke" stroke-width="1" stroke="rgb(255,171,80)" stroke-linejoin="miter" stroke-linecap="butt" stroke-miterlimit="10"/><path d=" M 429.658 272.63 C 429.658 260.736 439.314 251.08 451.208 251.08 C 463.102 251.08 472.758 260.736 472.758 272.63 C 472.758 284.524 463.102 294.18 451.208 294.18 C 439.314 294.18 429.658 284.524 429.658 272.63 Z " fill="rgb(255,215,124)" vector-effect="non-scaling-stroke" stroke-width="1" stroke="rgb(255,171,80)" stroke-linejoin="miter" stroke-linecap="butt" stroke-miterlimit="10"/><path d=" M 434.788 272.63 C 434.788 263.568 442.146 256.21 451.208 256.21 C 460.271 256.21 467.628 263.568 467.628 272.63 C 467.628 281.692 460.271 289.05 451.208 289.05 C 442.146 289.05 434.788 281.692 434.788 272.63 Z " fill="rgb(255,215,124)" vector-effect="non-scaling-stroke" stroke-width="1" stroke="rgb(255,171,80)" stroke-linejoin="miter" stroke-linecap="butt" stroke-miterlimit="10"/><path d=" M 441.978 272.63 C 441.978 267.536 446.114 263.4 451.208 263.4 C 456.302 263.4 460.438 267.536 460.438 272.63 C 460.438 277.724 456.302 281.86 451.208 281.86 C 446.114 281.86 441.978 277.724 441.978 272.63 Z " fill="rgb(255,215,124)" vector-effect="non-scaling-stroke" stroke-width="1" stroke="rgb(255,171,80)" stroke-linejoin="miter" stroke-linecap="butt" stroke-miterlimit="10"/><path d=" M 408.158 287.36 C 408.158 272.353 420.342 260.17 435.348 260.17 C 450.355 260.17 462.538 272.353 462.538 287.36 C 462.538 302.367 450.355 314.55 435.348 314.55 C 420.342 314.55 408.158 302.367 408.158 287.36 Z " fill="rgb(255,215,124)" vector-effect="non-scaling-stroke" stroke-width="1" stroke="rgb(255,171,80)" stroke-linejoin="miter" stroke-linecap="butt" stroke-miterlimit="10"/><path d=" M 413.798 287.36 C 413.798 275.466 423.454 265.81 435.348 265.81 C 447.242 265.81 456.898 275.466 456.898 287.36 C 456.898 299.254 447.242 308.91 435.348 308.91 C 423.454 308.91 413.798 299.254 413.798 287.36 Z " fill="rgb(255,215,124)" vector-effect="non-scaling-stroke" stroke-width="1" stroke="rgb(255,171,80)" stroke-linejoin="miter" stroke-linecap="butt" stroke-miterlimit="10"/><path d=" M 418.928 287.36 C 418.928 278.298 426.286 270.94 435.348 270.94 C 444.411 270.94 451.768 278.298 451.768 287.36 C 451.768 296.422 444.411 303.78 435.348 303.78 C 426.286 303.78 418.928 296.422 418.928 287.36 Z " fill="rgb(255,215,124)" vector-effect="non-scaling-stroke" stroke-width="1" stroke="rgb(255,171,80)" stroke-linejoin="miter" stroke-linecap="butt" stroke-miterlimit="10"/><path d=" M 426.118 287.36 C 426.118 282.266 430.254 278.13 435.348 278.13 C 440.442 278.13 444.578 282.266 444.578 287.36 C 444.578 292.454 440.442 296.59 435.348 296.59 C 430.254 296.59 426.118 292.454 426.118 287.36 Z " fill="rgb(255,215,124)" vector-effect="non-scaling-stroke" stroke-width="1" stroke="rgb(255,171,80)" stroke-linejoin="miter" stroke-linecap="butt" stroke-miterlimit="10"/><path d=" M 439.878 287.36 C 439.878 272.353 452.062 260.17 467.068 260.17 C 482.075 260.17 494.258 272.353 494.258 287.36 C 494.258 302.367 482.075 314.55 467.068 314.55 C 452.062 314.55 439.878 302.367 439.878 287.36 Z " fill="rgb(255,215,124)" vector-effect="non-scaling-stroke" stroke-width="1" stroke="rgb(255,171,80)" stroke-linejoin="miter" stroke-linecap="butt" stroke-miterlimit="10"/><path d=" M 445.518 287.36 C 445.518 275.466 455.174 265.81 467.068 265.81 C 478.962 265.81 488.618 275.466 488.618 287.36 C 488.618 299.254 478.962 308.91 467.068 308.91 C 455.174 308.91 445.518 299.254 445.518 287.36 Z " fill="rgb(255,215,124)" vector-effect="non-scaling-stroke" stroke-width="1" stroke="rgb(255,171,80)" stroke-linejoin="miter" stroke-linecap="butt" stroke-miterlimit="10"/><path d=" M 450.648 287.36 C 450.648 278.298 458.006 270.94 467.068 270.94 C 476.131 270.94 483.488 278.298 483.488 287.36 C 483.488 296.422 476.131 303.78 467.068 303.78 C 458.006 303.78 450.648 296.422 450.648 287.36 Z " fill="rgb(255,215,124)" vector-effect="non-scaling-stroke" stroke-width="1" stroke="rgb(255,171,80)" stroke-linejoin="miter" stroke-linecap="butt" stroke-miterlimit="10"/><path d=" M 457.838 287.36 C 457.838 282.266 461.974 278.13 467.068 278.13 C 472.162 278.13 476.298 282.266 476.298 287.36 C 476.298 292.454 472.162 296.59 467.068 296.59 C 461.974 296.59 457.838 292.454 457.838 287.36 Z " fill="rgb(255,215,124)" vector-effect="non-scaling-stroke" stroke-width="1" stroke="rgb(255,171,80)" stroke-linejoin="miter" stroke-linecap="butt" stroke-miterlimit="10"/><path d=" M 394.558 279.44 L 507.848 279.44 L 507.848 284.76 C 507.848 306.851 489.94 324.76 467.848 324.76 L 434.558 324.76 C 412.467 324.76 394.558 306.851 394.558 284.76 L 394.558 279.44 Z " fill="rgb(156,39,176)"/><g opacity="0.1"><path d=" M 497.628 279.43 C 497.015 304.004 476.92 323.607 452.338 323.61 L 429.848 323.61 C 433.129 324.359 436.483 324.742 439.848 324.75 L 462.508 324.75 C 474.531 324.755 486.064 319.983 494.567 311.483 C 503.071 302.983 507.848 291.453 507.848 279.43 L 497.628 279.43 Z " fill="rgb(0,0,0)"/></g><rect x="448.943" y="344.005" width="13.59" height="294.56" transform="matrix(0,1,-1,0,947.023,35.547)" fill="rgb(64,65,77)"/><rect x="186.128" y="437.03" width="11.89" height="108.18" transform="matrix(1,0,0,1,0,0)" fill="rgb(64,65,77)"/><rect x="280.038" y="437.03" width="11.89" height="108.18" transform="matrix(1,0,0,1,0,0)" fill="rgb(64,65,77)"/><path d=" M 301.448 419.2 C 301.448 426.42 276.968 432.28 246.768 432.28 C 216.568 432.28 193.278 426.43 193.278 419.2 C 193.278 411.97 216.568 406.12 246.768 406.12 C 276.968 406.12 301.448 412.01 301.448 419.2 Z " fill="rgb(246,198,205)"/><path d=" M 176.618 419.19 L 301.438 419.19 L 301.438 430.09 C 301.438 435.889 296.737 440.59 290.938 440.59 L 194.618 440.59 C 184.677 440.59 176.618 432.531 176.618 422.59 L 176.618 419.19 Z " fill="rgb(64,65,77)"/><path d=" M 155.421 294.111 L 157.997 293.529 C 161.768 292.678 165.515 295.045 166.366 298.816 L 197.54 436.921 L 193.638 437.802 C 186.818 439.342 180.041 435.061 178.501 428.24 L 150.115 302.484 C 149.705 300.67 150.035 298.767 151.03 297.196 C 152.026 295.625 153.606 294.515 155.421 294.111 L 155.421 294.111 Z " fill="rgb(64,65,77)"/><rect x="706.388" y="438.95" width="11.89" height="108.18" transform="matrix(-1,0,0,-1,1424.666,986.08)" fill="rgb(64,65,77)"/><rect x="612.478" y="438.95" width="11.89" height="108.18" transform="matrix(-1,0,0,-1,1236.846,986.08)" fill="rgb(64,65,77)"/><path d=" M 602.978 421.12 C 602.978 428.34 627.458 434.2 657.658 434.2 C 687.858 434.2 711.148 428.35 711.148 421.12 C 711.148 413.89 687.848 408.01 657.658 408.01 C 627.468 408.01 602.978 413.9 602.978 421.12 Z " fill="rgb(246,198,205)"/><path d=" M 709.788 442.52 L 613.468 442.52 C 607.669 442.52 602.968 437.819 602.968 432.02 L 602.968 421.12 L 727.788 421.12 L 727.788 424.52 C 727.788 434.461 719.729 442.52 709.788 442.52 Z " fill="rgb(64,65,77)"/><path d=" M 710.786 439.721 L 706.884 438.841 L 738.062 300.716 C 738.913 296.945 742.661 294.578 746.432 295.429 L 749.007 296.01 C 752.778 296.862 755.145 300.609 754.294 304.38 L 725.903 430.155 C 724.365 436.968 717.601 441.249 710.786 439.721 L 710.786 439.721 Z " fill="rgb(64,65,77)"/><linearGradient id="_lgradient_2" x1="49.98952709450846%" y1="100.01130131087943%" x2="49.98952709450846%" y2="2.220446049250313e-14%"><stop offset="0%" stop-opacity="0.25" style="stop-color:rgb(128,128,128)"/><stop offset="54%" stop-opacity="0.12" style="stop-color:rgb(128,128,128)"/><stop offset="100%" stop-opacity="0.1" style="stop-color:rgb(128,128,128)"/></linearGradient><path d=" M 715.018 379.01 L 718.528 377.9 C 718.528 377.9 712.528 337.82 712.588 301.9 C 712.588 300.9 712.588 299.83 712.588 298.8 C 712.658 296.56 712.738 294.34 712.848 292.17 C 712.988 289.39 713.018 286.74 712.998 284.17 C 713.328 249.58 699.698 234.97 699.698 234.97 C 699.698 234.97 683.698 212.15 674.108 207.71 C 673.278 205.11 672.328 201.77 671.488 197.89 C 671.798 197.68 672.098 197.47 672.388 197.25 C 676.349 194.312 680.138 191.15 683.738 187.78 C 688.658 183.17 693.378 177.55 693.118 171.21 C 693.145 170.593 693.125 169.974 693.058 169.36 C 692.148 161.71 684.198 155.95 680.988 148.7 C 678.288 142.61 679.098 135.83 676.738 129.65 C 674.378 123.47 666.138 117.72 659.918 120.97 C 657.628 122.17 656.248 124.29 654.338 125.9 C 649.598 129.9 641.958 130.27 635.478 128.45 C 628.998 126.63 627.078 119.21 618.018 119.19 C 618.823 119.46 619.592 119.826 620.308 120.28 C 619.551 120.153 618.786 120.086 618.018 120.08 C 621.783 121.271 624.494 124.566 624.938 128.49 C 624.924 128.731 624.897 128.972 624.858 129.21 C 621.238 131.16 616.478 130.05 612.138 129.98 C 607.798 129.91 602.858 132.1 603.288 135.65 C 603.215 136.053 603.215 136.467 603.288 136.87 C 603.858 139.56 607.458 141.59 607.898 144.08 C 607.898 144.15 607.898 144.21 607.898 144.28 C 599.867 148.293 591.178 150.827 582.248 151.76 C 581.958 151.76 582.088 152.11 582.508 152.62 L 582.248 152.62 C 580.618 152.79 592.018 161.8 593.318 162.39 C 598.078 164.55 603.768 166.14 608.808 167.8 L 609.248 167.94 C 607.55 171.885 606.675 176.135 606.678 180.43 C 606.678 195.83 617.748 208.77 632.738 212.43 C 635.538 215.7 638.478 219.29 641.158 222.86 L 640.968 222.86 C 640.968 222.86 623.738 245.78 624.288 280.01 C 624.239 284.3 624.466 288.589 624.968 292.85 C 613.888 292.22 590.078 289.3 571.968 276.04 C 547.538 258.17 520.288 263.53 525.968 274.25 C 531.648 284.97 560.738 293.9 565.428 294.8 C 565.868 294.88 566.888 295.12 568.348 295.48 C 562.568 296.57 558.608 298.48 558.848 301.05 C 559.318 305.96 584.218 321.6 599.248 322.49 C 609.178 323.08 621.128 326.14 630.558 328.83 C 631.468 349.38 626.498 355.54 626.498 355.54 C 626.498 355.54 627.978 356.45 630.428 357.74 L 629.378 360.74 C 623.278 364.26 615.758 367.93 608.918 369.41 C 600.202 371.201 591.729 374.021 583.678 377.81 L 549.848 394.16 C 543.706 397.01 539.471 402.829 538.648 409.55 C 537.908 416.48 539.998 425.14 551.318 432.01 C 552.018 437.64 555.458 444.21 564.488 450.23 C 581.988 461.87 627.978 496.74 634.238 501.5 C 634.358 510.01 633.238 527.08 622.738 529.74 C 609.578 533.08 620.168 545.74 630.808 545.24 C 633.333 546.195 636.081 546.397 638.718 545.82 C 649.998 543.14 691.338 528.82 694.158 507.4 C 694.275 506.471 694.329 505.536 694.318 504.6 C 694.482 500.948 693.571 497.329 691.698 494.19 C 692.139 495.158 692.497 496.161 692.768 497.19 C 689.348 489.39 681.018 484.49 674.538 481.73 C 674.538 481.66 674.538 481.58 674.538 481.51 C 673.538 481.12 672.538 480.8 671.718 480.51 C 671.735 479.93 671.691 479.351 671.588 478.78 L 606.758 434.11 C 606.758 434.11 634.948 410.88 664.078 414.46 C 693.208 418.04 697.848 412.75 697.848 412.75 C 697.848 412.75 712.788 398.54 714.288 382.18 L 715.228 381.93 C 715.228 381.93 715.158 380.9 715.018 379.01 Z " fill="url(#_lgradient_2)"/><path d=" M 635.848 495.36 C 635.848 495.36 638.498 524.53 625.238 528.07 C 625.238 528.07 624.358 545.75 634.958 543.07 C 634.958 543.07 684.468 526.27 687.118 505.07 C 687.118 505.07 660.598 476.78 660.598 476.78 L 635.848 495.36 Z " fill="rgb(184,97,110)"/><g opacity="0.05"><path d=" M 635.848 495.36 C 635.848 495.36 638.498 524.53 625.238 528.07 C 625.238 528.07 624.358 545.75 634.958 543.07 C 634.958 543.07 684.468 526.27 687.118 505.07 C 687.118 505.07 660.598 476.78 660.598 476.78 L 635.848 495.36 Z " fill="rgb(0,0,0)"/></g><path d=" M 641.178 496.24 C 641.178 496.24 643.828 525.41 630.568 528.95 C 630.568 528.95 629.688 546.63 640.288 543.95 C 640.288 543.95 689.798 527.15 692.448 505.95 C 692.448 505.95 665.928 477.66 665.928 477.66 L 641.178 496.24 Z " fill="rgb(184,97,110)"/><g opacity="0.1"><path d=" M 668.578 478.56 L 643.848 497.13 C 643.848 497.13 643.958 498.39 644.028 500.4 C 653.368 497.84 673.718 491.04 674.028 480.4 C 672.25 479.678 670.43 479.064 668.578 478.56 Z " fill="rgb(0,0,0)"/></g><rect x="642.498" y="224.39" width="10.61" height="7.96" transform="matrix(1,0,0,1,0,0)" fill="rgb(248,189,197)"/><path d=" M 642.948 353.01 C 642.948 353.01 626.098 366.25 612.258 369.39 C 604.029 371.171 596.052 373.962 588.508 377.7 L 556.678 393.88 C 550.804 396.835 546.834 402.572 546.138 409.11 C 545.228 418.11 548.848 429.95 570.448 436.99 L 638.518 493.57 L 659.738 475.89 L 587.248 420.21 L 642.948 385.73 L 642.948 353.01 Z " fill="rgb(117,138,200)"/><g opacity="0.1"><path d=" M 642.948 353.01 C 642.948 353.01 626.098 366.25 612.258 369.39 C 604.029 371.171 596.052 373.962 588.508 377.7 L 556.678 393.88 C 550.804 396.835 546.834 402.572 546.138 409.11 C 545.228 418.11 548.848 429.95 570.448 436.99 L 638.518 493.57 L 659.738 475.89 L 587.248 420.21 L 642.948 385.73 L 642.948 353.01 Z " fill="rgb(0,0,0)"/></g><path d=" M 633.218 293.79 C 633.218 293.79 600.508 294.67 577.518 276.99 C 577.518 276.99 528.898 264.61 534.198 275.22 C 534.198 275.22 566.908 294.67 571.328 295.55 C 571.328 295.55 639.398 314.12 639.398 314.12 L 633.218 293.79 Z " fill="rgb(248,189,197)"/><g opacity="0.05"><path d=" M 633.218 293.79 C 633.218 293.79 600.508 294.67 577.518 276.99 C 577.518 276.99 528.898 264.61 534.198 275.22 C 534.198 275.22 566.908 294.67 571.328 295.55 C 571.328 295.55 639.398 314.12 639.398 314.12 L 633.218 293.79 Z " fill="rgb(0,0,0)"/></g><path d=" M 636.758 345.07 L 626.148 376.9 C 626.148 376.9 566.478 413.59 561.608 418.45 C 557.828 422.23 552.768 437.02 570.448 449.39 C 588.128 461.76 636.748 500.67 636.748 500.67 C 636.748 500.67 673.878 492.67 671.228 477.67 L 610.228 433.47 C 610.228 433.47 636.748 410.47 664.158 414.02 C 664.158 414.02 695.988 412.25 695.988 412.25 C 695.988 412.25 717.208 391.01 710.128 370.71 C 703.048 350.41 636.758 345.07 636.758 345.07 Z " fill="rgb(117,138,200)"/><path d=" M 623.498 201.01 C 623.498 201.01 653.558 233.72 651.788 243.44 C 651.788 243.44 675.658 215.15 675.658 215.15 C 675.658 215.15 667.658 195.7 669.468 174.48 L 623.498 201.01 Z " fill="rgb(248,189,197)"/><g opacity="0.1"><path d=" M 649.728 231.01 C 651.779 228.845 653.938 226.786 656.198 224.84 C 660.722 221.131 664.871 216.987 668.588 212.47 C 674.778 204.47 697.758 238.99 697.758 238.99 C 697.758 238.99 711.898 254.9 710.138 292.92 C 708.378 330.94 712.348 381.77 712.348 381.77 L 706.998 383.26 C 697.862 386.309 687.824 384.883 679.898 379.41 C 672.838 374.53 663.898 369.41 657.098 368.95 C 643.838 368.07 631.898 360.55 631.898 360.55 C 631.898 360.55 637.648 346.85 628.808 302.64 C 619.968 258.43 642.498 227.01 642.498 227.01 C 642.498 227.01 644.278 236.63 649.728 231.01 Z " fill="rgb(0,0,0)"/></g><path d=" M 715.438 377.78 L 710.138 379.55 L 706.988 380.6 C 697.852 383.65 687.813 382.224 679.888 376.75 C 672.838 371.88 663.888 366.75 657.088 366.29 C 643.848 365.4 628.848 355.68 628.848 355.68 C 628.848 355.68 637.688 344.19 628.848 299.98 C 620.008 255.77 642.548 224.39 642.548 224.39 C 642.548 224.39 644.328 233.96 649.778 228.33 C 651.824 226.167 653.981 224.111 656.238 222.17 C 660.762 218.461 664.911 214.317 668.628 209.8 C 674.818 201.8 697.798 236.32 697.798 236.32 C 697.798 236.32 711.938 252.23 710.178 290.25 C 709.988 294.25 709.908 298.37 709.898 302.54 C 709.768 338.12 715.438 377.78 715.438 377.78 Z " fill="rgb(156,39,176)"/><g opacity="0.1"><path d=" M 665.048 291.14 L 665.928 310.59 C 665.928 310.59 619.068 313.24 609.348 303.52 C 599.628 293.8 635.848 332.11 643.848 334.46 C 651.358 336.67 670.748 338.62 680.918 338.82 C 686.854 339.011 692.344 335.682 694.918 330.33 C 696.104 327.752 696.487 324.878 696.018 322.08 C 694.248 310.59 696.018 285.83 696.018 285.83 L 665.048 291.14 Z " fill="rgb(0,0,0)"/></g><path d=" M 665.048 289.37 L 665.928 308.82 C 665.928 308.82 619.068 311.47 609.348 301.75 C 609.348 301.75 564.458 294.18 565.148 301.75 C 565.588 306.61 589.018 322.08 603.148 322.97 C 617.278 323.86 635.848 330.34 643.848 332.69 C 651.358 334.9 670.748 336.85 680.918 337.05 C 686.854 337.241 692.344 333.912 694.918 328.56 C 696.104 325.982 696.487 323.108 696.018 320.31 C 694.248 308.82 696.018 284.06 696.018 284.06 L 665.048 289.37 Z " fill="rgb(248,189,197)"/><g opacity="0.1"><path d=" M 675.658 232.79 C 675.658 232.79 655.328 235.44 657.978 265.5 C 657.978 265.5 664.168 298.21 664.168 298.21 C 664.168 298.21 694.228 295.56 697.758 294.67 C 697.758 294.67 699.528 261.08 699.528 261.08 C 699.528 261.08 698.638 231.91 675.658 232.79 Z " fill="rgb(0,0,0)"/></g><path d=" M 675.658 231.91 C 675.658 231.91 655.328 234.56 657.978 264.62 C 657.978 264.62 664.168 297.33 664.168 297.33 C 664.168 297.33 694.228 294.68 697.758 293.79 C 697.758 293.79 699.528 260.2 699.528 260.2 C 699.528 260.2 698.638 231.01 675.658 231.91 Z " fill="rgb(156,39,176)"/><g opacity="0.1"><path d=" M 668.138 193.45 C 666.748 186.45 669.598 184.29 670.348 175.33 L 624.348 201.85 C 624.348 201.85 629.618 207.59 635.608 214.96 C 638.285 215.637 641.037 215.973 643.798 215.96 C 655.848 216.01 662.438 203.07 668.138 193.45 Z " fill="rgb(0,0,0)"/></g><path d=" M 610.228 182.4 C 610.228 164.347 624.885 149.69 642.938 149.69 C 660.991 149.69 675.648 164.347 675.648 182.4 C 675.648 200.453 660.991 215.11 642.938 215.11 C 624.885 215.11 610.228 200.453 610.228 182.4 Z " fill="rgb(248,189,197)"/><g opacity="0.1"><path d=" M 651.188 172.47 C 646.188 175.65 646.118 182.84 649.338 187.82 C 652.558 192.8 658.108 196.09 663.448 199.19 C 664.998 200.09 666.708 201.02 668.448 200.82 C 669.786 200.559 671.025 199.933 672.028 199.01 C 675.765 196.094 679.331 192.966 682.708 189.64 C 687.568 184.86 692.238 178.97 691.478 172.3 C 690.618 164.73 683.138 159.03 680.118 151.86 C 677.578 145.86 678.338 139.13 676.118 133 C 673.898 126.87 666.118 121.2 660.298 124.41 C 658.148 125.59 656.848 127.7 655.048 129.29 C 650.588 133.23 643.398 133.62 637.298 131.82 C 631.198 130.02 629.388 122.67 620.878 122.65 C 625.108 124.14 627.968 128.55 627.318 132.57 C 623.908 134.5 619.428 133.4 615.318 133.33 C 611.208 133.26 606.318 135.56 607.028 139.26 C 607.648 142.26 611.978 144.49 611.338 147.49 C 603.826 151.447 595.637 153.958 587.198 154.89 C 585.668 155.06 596.388 163.97 597.608 164.56 C 602.078 166.7 607.448 168.27 612.178 169.91 C 625.028 174.34 638.188 175.92 651.188 172.47 Z " fill="rgb(0,0,0)"/></g><path d=" M 651.188 171.58 C 646.188 174.76 646.118 181.95 649.338 186.93 C 652.558 191.91 658.108 195.2 663.448 198.3 C 664.998 199.2 666.708 200.13 668.448 199.93 C 669.786 199.669 671.025 199.043 672.028 198.12 C 675.765 195.204 679.331 192.076 682.708 188.75 C 687.568 183.97 692.238 178.08 691.478 171.41 C 690.618 163.84 683.138 158.14 680.118 150.97 C 677.578 144.97 678.338 138.24 676.118 132.11 C 673.898 125.98 666.118 120.31 660.298 123.52 C 658.148 124.7 656.848 126.81 655.048 128.4 C 650.588 132.34 643.398 132.73 637.298 130.93 C 631.198 129.13 629.388 121.78 620.878 121.76 C 625.108 123.25 627.968 127.66 627.318 131.68 C 623.908 133.61 619.428 132.51 615.318 132.44 C 611.208 132.37 606.318 134.67 607.028 138.37 C 607.648 141.37 611.978 143.6 611.338 146.6 C 603.826 150.557 595.637 153.068 587.198 154 C 585.668 154.17 596.388 163.08 597.608 163.67 C 602.078 165.81 607.448 167.38 612.178 169.02 C 625.028 173.46 638.188 175.01 651.188 171.58 Z " fill="rgb(145,97,104)"/><g opacity="0.1"><path d=" M 690.138 492.9 C 691.558 496.174 692.052 499.775 691.568 503.31 C 688.918 524.53 650.018 538.67 639.408 541.31 C 633.818 542.71 627.728 539.44 625.178 535.51 C 626.818 540.13 633.878 544.68 640.298 543.08 C 650.908 540.43 689.808 526.28 692.458 505.08 C 693.037 500.876 692.222 496.597 690.138 492.9 Z " fill="rgb(255,255,255)"/></g><linearGradient id="_lgradient_3" x1="0%" y1="50%" x2="6.123233995736766e-15%" y2="-50%"><stop offset="0%" stop-opacity="0.1" style="stop-color:rgb(128,128,128)"/></linearGradient><path d=" M 409.188 517.01 L 409.188 517.01 C 408.398 515.23 404.298 511.76 384.528 511.01 C 370.988 510.5 366.378 503.35 365.128 496.37 C 369.578 495.79 373.058 494.99 374.198 493.88 C 374.198 493.88 374.138 493.56 374.038 492.99 L 374.198 492.87 C 373.333 487.835 372.882 482.738 372.848 477.63 C 372.822 473.259 373.285 468.898 374.228 464.63 C 374.779 461.808 375.01 458.934 374.918 456.06 C 375.028 439.06 369.058 409.18 369.058 409.18 L 368.238 384.35 C 368.07 378.039 364.469 372.324 358.848 369.45 C 356.884 368.434 354.709 367.893 352.498 367.87 C 352.498 367.87 321.158 362.93 292.948 360.24 C 290.948 358.63 283.898 354.29 267.738 356.78 L 258.438 329.56 C 258.363 329.231 258.31 328.896 258.278 328.56 C 258.608 325.1 260.918 319.89 271.688 319.56 L 273.938 321.56 C 273.938 321.56 274.338 320.77 275.008 319.56 C 288.368 319.41 361.148 318.67 364.898 319.56 C 369.028 320.56 405.208 312.5 406.248 311.5 C 420.308 297.79 364.898 304.44 364.898 304.44 C 359.448 305.33 341.838 304.27 323.798 302.8 C 332.728 289.41 341.128 243.96 341.128 243.96 C 341.128 243.96 373.128 227.83 363.868 218.76 C 354.608 209.69 326.658 238.92 326.658 238.92 C 326.658 238.92 315.288 272.19 310.118 282.27 C 308.118 286.27 305.528 287.09 303.218 286.63 C 304.268 285.79 304.948 285.29 304.948 285.29 C 304.948 285.29 282.208 267.14 280.138 260.09 C 279.753 258.935 279.243 257.825 278.618 256.78 C 277.528 250.39 275.618 244.1 270.958 239.91 C 270.175 239.07 269.311 238.309 268.378 237.64 C 267.118 236.74 265.688 235.96 264.498 234.98 L 264.498 234.98 C 265.168 231.9 265.948 228.7 266.758 225.6 C 283.638 223.6 296.758 209.6 296.758 192.6 C 296.756 190.036 296.45 187.482 295.848 184.99 C 300.979 185.328 305.913 182.952 308.848 178.73 C 312.258 173.65 312.148 166.73 309.288 161.37 C 308.106 159.194 306.556 157.238 304.708 155.59 C 301.761 152.622 298.168 150.377 294.208 149.03 C 290.778 147.84 286.988 147.13 284.268 144.8 C 283.053 143.21 281.947 141.54 280.958 139.8 C 279.817 138.092 278.474 136.527 276.958 135.14 C 271.958 129.99 264.898 126.82 257.708 125.42 C 248.948 123.71 239.898 124.32 230.988 124.93 C 227.658 125.16 223.748 125.75 222.248 128.65 C 221.118 130.83 221.858 133.44 221.708 135.87 C 221.238 143.6 212.398 147.87 204.708 149.74 C 197.018 151.61 187.848 153.23 184.138 160.01 C 180.768 166.13 183.138 173.55 184.218 180.42 C 186.017 192.483 183.338 204.787 176.688 215.01 C 173.308 220.18 168.948 224.78 166.278 230.33 C 163.32 236.517 162.633 243.548 164.338 250.19 C 164.838 252.13 165.558 254.11 165.198 256.09 C 164.789 257.723 163.985 259.23 162.858 260.48 C 153.562 271.959 139.897 279.038 125.158 280.01 C 125.77 282.04 126.967 283.845 128.598 285.2 C 130.671 287.249 133.087 288.918 135.738 290.13 C 142.721 293.632 150.064 296.365 157.638 298.28 C 162.738 299.57 168.068 300.49 173.258 299.61 C 178.448 298.73 183.508 295.76 185.638 291.06 C 186.878 288.34 187.058 285.26 188.158 282.49 C 190.348 276.95 195.778 273.36 199.448 268.61 C 198.212 280.85 197.628 293.148 197.698 305.45 C 197.698 309.3 197.698 312.77 197.698 315.99 C 197.698 329.88 196.698 339.46 188.088 356.81 C 187.062 358.634 186.612 360.726 186.798 362.81 C 186.417 365.101 187.272 367.423 189.048 368.92 C 188.448 372.381 188.157 375.888 188.178 379.4 C 188.058 392.04 192.328 409.01 214.968 413.31 L 255.278 411.31 C 255.278 411.31 312.128 400.22 327.628 408.31 C 330.264 408.871 332.151 411.195 332.158 413.89 C 332.11 414.731 331.98 415.565 331.768 416.38 C 331.336 419 331.172 421.657 331.278 424.31 C 331.208 441.31 334.868 479.89 334.868 479.89 L 334.868 496.25 C 332.288 500.13 329.108 505.87 329.518 510.1 C 329.518 510.19 329.518 510.29 329.518 510.38 C 329.518 510.47 329.518 510.63 329.578 510.75 C 329.638 510.87 329.578 510.97 329.648 511.08 C 329.718 511.19 329.708 511.29 329.738 511.4 C 329.768 511.51 329.818 511.64 329.868 511.75 C 329.918 511.86 329.938 511.93 329.978 512.02 C 330.018 512.11 330.108 512.28 330.178 512.4 L 330.298 512.61 C 330.418 512.802 330.552 512.986 330.698 513.16 C 335.868 519.16 361.698 530.77 369.978 530.3 C 378.768 529.8 408.218 531.3 409.258 518.2 C 409.39 517.809 409.365 517.383 409.188 517.01 L 409.188 517.01 Z " fill="url(#_lgradient_3)"/><path d=" M 335.708 491.69 C 335.708 491.69 323.708 506.69 328.708 512.69 C 328.708 512.69 358.708 530.16 366.708 529.69 C 375.208 529.19 403.708 530.69 404.708 517.69 C 404.708 517.69 406.708 511.69 380.708 510.69 C 354.708 509.69 362.708 482.69 362.708 482.69 L 335.708 491.69 Z " fill="rgb(89,76,118)"/><g opacity="0.1"><path d=" M 192.708 365.69 C 192.708 365.69 180.708 406.69 216.708 413.69 L 255.708 411.69 C 255.708 411.69 310.708 400.69 325.708 408.69 C 325.708 408.69 331.708 409.69 329.708 417.69 C 327.708 425.69 332.708 479.69 332.708 479.69 L 332.708 497.69 C 332.708 497.69 366.708 497.69 370.708 493.69 C 370.708 493.69 367.708 477.69 370.708 464.69 C 373.708 451.69 365.708 410.69 365.708 410.69 L 364.918 386.01 C 364.799 379.801 361.334 374.14 355.858 371.21 C 353.966 370.207 351.86 369.672 349.718 369.65 C 349.718 369.65 281.718 358.65 257.718 360.65 C 233.718 362.65 192.708 365.69 192.708 365.69 Z " fill="rgb(0,0,0)"/></g><path d=" M 192.708 364.69 C 192.708 364.69 180.708 405.69 216.708 412.69 L 255.708 410.69 C 255.708 410.69 310.708 399.69 325.708 407.69 C 325.708 407.69 331.708 408.69 329.708 416.69 C 327.708 424.69 332.708 478.69 332.708 478.69 L 332.708 496.69 C 332.708 496.69 366.708 496.69 370.708 492.69 C 370.708 492.69 367.708 476.69 370.708 463.69 C 373.708 450.69 365.708 409.69 365.708 409.69 L 364.918 385.01 C 364.799 378.801 361.334 373.14 355.858 370.21 C 353.966 369.207 351.86 368.672 349.718 368.65 C 349.718 368.65 281.718 357.65 257.718 359.65 C 233.718 361.65 192.708 364.69 192.708 364.69 Z " fill="rgb(139,156,209)"/><path d=" M 295.708 283.69 C 295.708 283.69 303.708 293.69 308.708 283.69 C 308.708 283.69 324.708 240.69 324.708 240.69 C 324.708 240.69 351.708 211.69 360.708 220.69 C 360.708 220.69 338.708 245.69 338.708 245.69 C 338.708 245.69 327.708 306.69 317.708 307.69 C 317.708 307.69 292.708 307.69 292.708 307.69 L 287.708 296.69 L 295.708 283.69 Z " fill="rgb(248,189,197)"/><g opacity="0.05"><path d=" M 295.708 283.69 C 295.708 283.69 303.708 293.69 308.708 283.69 C 308.708 283.69 324.708 240.69 324.708 240.69 C 324.708 240.69 351.708 211.69 360.708 220.69 C 360.708 220.69 338.708 245.69 338.708 245.69 C 338.708 245.69 327.708 306.69 317.708 307.69 C 317.708 307.69 292.708 307.69 292.708 307.69 L 287.708 296.69 L 295.708 283.69 Z " fill="rgb(0,0,0)"/></g><path d=" M 259.708 233.69 C 259.708 233.69 277.708 254.69 279.708 261.69 C 279.708 261.69 303.708 286.69 303.708 286.69 C 303.708 286.69 287.708 298.69 290.708 304.69 C 290.708 304.69 269.708 284.69 269.708 284.69 L 241.708 243.69 L 259.708 233.69 Z " fill="rgb(235,100,117)"/><g opacity="0.1"><path d=" M 259.708 233.69 C 259.708 233.69 277.708 254.69 279.708 261.69 C 279.708 261.69 303.708 286.69 303.708 286.69 C 303.708 286.69 287.708 298.69 290.708 304.69 C 290.708 304.69 269.708 284.69 269.708 284.69 L 241.708 243.69 L 259.708 233.69 Z " fill="rgb(0,0,0)"/></g><path d=" M 271.708 209.69 C 271.708 209.69 262.708 238.69 262.708 249.69 C 262.708 249.69 224.708 246.69 225.708 240.69 C 225.708 240.69 247.708 212.69 248.708 203.69 C 249.708 194.69 271.708 209.69 271.708 209.69 Z " fill="rgb(248,189,197)"/><g opacity="0.1"><path d=" M 241.708 229.69 C 241.708 229.69 206.708 220.69 201.708 271.69 C 201.708 271.69 205.708 328.69 190.708 359.69 C 190.708 359.69 292.708 363.69 292.708 363.69 C 292.708 363.69 286.708 356.69 267.708 359.69 L 258.708 332.69 C 258.708 332.69 255.708 320.69 272.708 320.69 C 272.708 320.69 281.708 285.69 281.708 285.69 C 281.708 285.69 272.708 255.69 267.708 252.69 C 262.708 249.69 253.708 231.69 241.708 229.69 Z " fill="rgb(0,0,0)"/></g><path d=" M 241.708 227.69 C 241.708 227.69 206.708 218.69 201.708 269.69 C 201.708 269.69 205.708 326.69 190.708 357.69 C 190.708 357.69 292.708 361.69 292.708 361.69 C 292.708 361.69 286.708 354.69 267.708 357.69 L 258.708 330.69 C 258.708 330.69 255.708 318.69 272.708 318.69 C 272.708 318.69 281.708 283.69 281.708 283.69 C 281.708 283.69 272.708 253.69 267.708 250.69 C 262.708 247.69 253.708 229.69 241.708 227.69 Z " fill="rgb(235,100,117)"/><path d=" M 276.708 299.69 C 276.708 299.69 349.708 307.69 361.708 305.69 C 361.708 305.69 415.308 299.09 401.708 312.69 C 400.708 313.69 365.708 321.69 361.708 320.69 C 357.708 319.69 272.708 320.69 272.708 320.69 L 271.708 310.69 L 276.708 299.69 Z " fill="rgb(248,189,197)"/><g opacity="0.1"><path d=" M 220.708 274.69 L 273.708 322.69 C 273.708 322.69 283.708 302.69 286.708 302.69 C 286.708 302.69 250.708 243.69 250.708 243.69 C 250.708 243.69 240.708 231.69 234.708 237.69 C 228.708 243.69 210.708 239.69 220.708 274.69 Z " fill="rgb(0,0,0)"/></g><path d=" M 219.708 272.69 L 272.708 320.69 C 272.708 320.69 282.708 300.69 285.708 300.69 C 285.708 300.69 249.708 241.69 249.708 241.69 C 249.708 241.69 239.708 229.69 233.708 235.69 C 227.708 241.69 209.708 237.69 219.708 272.69 Z " fill="rgb(235,100,117)"/><path d=" M 229.708 194.69 C 229.708 176.477 244.495 161.69 262.708 161.69 C 280.921 161.69 295.708 176.477 295.708 194.69 C 295.708 212.903 280.921 227.69 262.708 227.69 C 244.495 227.69 229.708 212.903 229.708 194.69 Z " fill="rgb(248,189,197)"/><g opacity="0.1"><path d=" M 291.608 186.4 C 297.208 188.61 304.068 185.96 307.368 180.93 C 310.668 175.9 310.568 169.05 307.788 163.71 C 305.008 158.37 299.868 154.49 294.198 152.47 C 290.758 151.25 286.928 150.55 284.288 148.03 C 282.618 146.44 281.628 144.29 280.378 142.35 C 275.708 135.07 267.378 130.77 258.908 129.08 C 250.438 127.39 241.678 127.99 233.058 128.59 C 229.838 128.82 226.058 129.4 224.598 132.28 C 223.508 134.44 224.218 137.03 224.078 139.44 C 223.628 147.11 215.078 151.36 207.608 153.2 C 200.138 155.04 191.478 156.77 187.838 163.53 C 184.578 169.6 186.908 176.96 187.918 183.78 C 189.645 195.693 187.064 207.831 180.638 218.01 C 177.368 223.14 173.158 227.7 170.568 233.21 C 167.703 239.367 167.039 246.322 168.688 252.91 C 169.178 254.84 169.868 256.8 169.528 258.76 C 169.136 260.371 168.361 261.863 167.268 263.11 C 158.405 274.45 145.154 281.506 130.798 282.53 C 131.938 286.82 136.088 289.53 140.038 291.53 C 146.778 294.997 153.882 297.707 161.218 299.61 C 166.148 300.89 171.308 301.8 176.328 300.93 C 181.348 300.06 186.238 297.11 188.328 292.45 C 189.528 289.75 189.708 286.7 190.768 283.94 C 193.158 277.75 199.528 274.01 202.948 268.32 C 206.218 262.88 207.488 262.24 208.318 255.96 C 209.148 249.68 210.978 242.9 216.138 239.21 C 221.538 235.34 229.138 236.08 235.138 239.05 C 241.138 242.02 244.848 240.86 249.858 245.22 C 258.647 252.855 268.483 259.192 279.068 264.04 C 278.068 255.32 276.458 245.59 269.378 240.4 C 267.378 238.91 264.848 237.77 263.788 235.49 C 262.098 231.86 264.988 227.43 263.678 223.64 C 262.368 219.85 257.388 218.45 255.178 215.01 C 253.298 212.09 253.808 208.12 255.568 205.12 C 257.328 202.12 260.108 199.9 262.878 197.8 Q 266.568 195.01 270.358 192.35 C 272.641 190.901 274.691 189.114 276.438 187.05 C 277.438 185.68 278.098 182.68 279.488 181.71 C 282.988 179.29 288.368 185.13 291.608 186.4 Z " fill="rgb(0,0,0)"/></g><path d=" M 290.608 185.4 C 296.208 187.61 303.068 184.96 306.368 179.93 C 309.668 174.9 309.568 168.05 306.788 162.71 C 304.008 157.37 298.868 153.49 293.198 151.47 C 289.758 150.25 285.928 149.55 283.288 147.03 C 281.618 145.44 280.628 143.29 279.378 141.35 C 274.708 134.07 266.378 129.77 257.908 128.08 C 249.438 126.39 240.678 126.99 232.058 127.59 C 228.838 127.82 225.058 128.4 223.598 131.28 C 222.508 133.44 223.218 136.03 223.078 138.44 C 222.628 146.11 214.078 150.36 206.608 152.2 C 199.138 154.04 190.478 155.77 186.838 162.53 C 183.578 168.6 185.908 175.96 186.918 182.78 C 188.645 194.693 186.064 206.831 179.638 217.01 C 176.368 222.14 172.158 226.7 169.568 232.21 C 166.703 238.367 166.039 245.322 167.688 251.91 C 168.178 253.84 168.868 255.8 168.528 257.76 C 168.136 259.371 167.361 260.863 166.268 262.11 C 157.405 273.45 144.154 280.506 129.798 281.53 C 130.938 285.82 135.088 288.53 139.038 290.53 C 145.778 293.997 152.882 296.707 160.218 298.61 C 165.148 299.89 170.308 300.8 175.328 299.93 C 180.348 299.06 185.238 296.11 187.328 291.45 C 188.528 288.75 188.708 285.7 189.768 282.94 C 192.158 276.75 198.528 273.01 201.948 267.32 C 205.218 261.88 206.488 261.24 207.318 254.96 C 208.148 248.68 209.978 241.9 215.138 238.21 C 220.538 234.34 228.138 235.08 234.138 238.05 C 240.138 241.02 243.848 239.86 248.858 244.22 C 257.647 251.855 267.483 258.192 278.068 263.04 C 277.068 254.32 275.458 244.59 268.378 239.4 C 266.378 237.91 263.848 236.77 262.788 234.49 C 261.098 230.86 263.988 226.43 262.678 222.64 C 261.368 218.85 256.388 217.45 254.178 214.01 C 252.298 211.09 252.808 207.12 254.568 204.12 C 256.328 201.12 259.108 198.9 261.878 196.8 Q 265.568 194.01 269.358 191.35 C 271.641 189.901 273.691 188.114 275.438 186.05 C 276.438 184.68 277.098 181.68 278.488 180.71 C 281.988 178.29 287.368 184.13 290.608 185.4 Z " fill="rgb(145,97,104)"/><g id="Group" style="opacity:0.1;"><g opacity="0.1"><path d=" M 361.568 490.57 C 361.643 487.908 362.026 485.264 362.708 482.69 L 362.208 482.86 C 361.709 485.398 361.494 487.984 361.568 490.57 Z " fill="rgb(255,255,255)"/></g><g opacity="0.1"><path d=" M 366.708 527.69 C 358.708 528.16 333.708 516.69 328.708 510.69 C 328.052 509.877 327.648 508.89 327.548 507.85 C 327.252 509.554 327.671 511.305 328.708 512.69 C 333.708 518.69 358.708 530.16 366.708 529.69 C 375.208 529.19 403.708 530.69 404.708 517.69 C 404.783 517.331 404.733 516.957 404.568 516.63 C 402.278 528.61 374.998 527.2 366.708 527.69 Z " fill="rgb(255,255,255)"/></g></g><rect x="406.208" y="229.19" width="1" height="41" transform="matrix(1,0,0,1,0,0)" fill="rgb(255,215,124)" vector-effect="non-scaling-stroke" stroke-width="0.25" stroke="rgb(255,171,80)" stroke-linejoin="miter" stroke-linecap="butt" stroke-miterlimit="10"/><rect x="407.208" y="229.19" width="1" height="41" transform="matrix(1,0,0,1,0,0)" fill="rgb(255,215,124)" vector-effect="non-scaling-stroke" stroke-width="0.25" stroke="rgb(255,171,80)" stroke-linejoin="miter" stroke-linecap="butt" stroke-miterlimit="10"/><rect x="408.208" y="229.19" width="1" height="41" transform="matrix(1,0,0,1,0,0)" fill="rgb(255,215,124)" vector-effect="non-scaling-stroke" stroke-width="0.25" stroke="rgb(255,171,80)" stroke-linejoin="miter" stroke-linecap="butt" stroke-miterlimit="10"/><rect x="409.208" y="229.19" width="1" height="41" transform="matrix(1,0,0,1,0,0)" fill="rgb(255,215,124)" vector-effect="non-scaling-stroke" stroke-width="0.25" stroke="rgb(255,171,80)" stroke-linejoin="miter" stroke-linecap="butt" stroke-miterlimit="10"/><rect x="410.208" y="229.19" width="1" height="41" transform="matrix(1,0,0,1,0,0)" fill="rgb(255,215,124)" vector-effect="non-scaling-stroke" stroke-width="0.25" stroke="rgb(255,171,80)" stroke-linejoin="miter" stroke-linecap="butt" stroke-miterlimit="10"/><rect x="411.208" y="229.19" width="1" height="41" transform="matrix(1,0,0,1,0,0)" fill="rgb(255,215,124)" vector-effect="non-scaling-stroke" stroke-width="0.25" stroke="rgb(255,171,80)" stroke-linejoin="miter" stroke-linecap="butt" stroke-miterlimit="10"/><rect x="412.208" y="229.19" width="1" height="41" transform="matrix(1,0,0,1,0,0)" fill="rgb(255,215,124)" vector-effect="non-scaling-stroke" stroke-width="0.25" stroke="rgb(255,171,80)" stroke-linejoin="miter" stroke-linecap="butt" stroke-miterlimit="10"/></g></g><g opacity="0.1"><path d=" M 522.367 140.559 C 466.592 138.691 413.463 121.347 362.739 102.368 C 312.014 83.389 261.772 62.36 207.334 52.306 C 172.32 45.838 132.272 44.925 104.066 63.007 C 76.912 80.442 68.139 110.455 63.425 138.334 C 59.874 159.305 57.789 181.373 67.518 201.008 C 74.266 214.64 86.253 226.097 94.535 239.198 C 123.379 284.628 102.998 340.652 71.741 385.011 C 57.091 405.824 40.07 425.692 28.764 447.825 C 17.457 469.959 12.218 495.356 22.111 517.955 C 31.927 540.371 55.307 557.174 80.626 569.005 C 132.066 593.04 192.658 599.915 251.784 603.808 C 382.629 612.434 514.163 608.698 645.352 604.962 C 693.904 603.576 742.664 602.173 790.424 594.941 C 816.95 590.923 844.328 584.555 863.589 569.163 C 888.029 549.628 894.088 516.543 877.714 492.052 C 850.232 450.964 774.3 440.76 755.065 396.659 C 744.5 372.391 755.358 345.359 770.715 322.843 C 803.67 274.557 858.901 232.191 861.814 176.997 C 863.813 139.081 837.253 101.123 796.198 83.182 C 753.169 64.311 693.482 66.702 661.751 97.827 C 629.055 129.899 571.609 142.203 522.367 140.559 Z " fill="rgb(156,39,176)"/></g></g></g></svg>