<?xml version="1.0" standalone="no"?><!-- Generator: Gravit.io --><svg xmlns="http://www.w3.org/2000/svg" xmlns:xlink="http://www.w3.org/1999/xlink" style="isolation:isolate" viewBox="30 91.847 146.356 131.305" width="146.356" height="131.305"><g id="Group"><path d=" M 78.375 122.811 L 78.375 136.47 L 78.375 136.47 Q 78.375 137.196 77.85 137.68 L 77.85 137.68 L 77.85 137.68 Q 77.325 138.192 76.61 138.192 L 76.61 138.192 L 76.566 138.192 L 76.566 138.192 Q 75.851 138.192 75.325 137.68 L 75.325 137.68 L 75.325 137.68 Q 74.8 137.196 74.8 136.47 L 74.8 136.47 L 74.8 122.811 L 74.8 122.811 Q 74.8 119.979 76.858 117.973 L 76.858 117.973 L 76.858 117.973 Q 78.915 115.967 81.819 115.967 L 81.819 115.967 L 81.819 115.967 Q 85.293 115.967 87.058 118.215 L 87.058 118.215 L 87.058 118.215 Q 88.81 115.967 92.283 115.967 L 92.283 115.967 L 92.283 115.967 Q 95.187 115.967 97.245 117.973 L 97.245 117.973 L 97.245 117.973 Q 99.302 119.979 99.302 122.811 L 99.302 122.811 L 99.302 136.47 L 99.302 136.47 Q 99.302 137.182 98.792 137.68 L 98.792 137.68 L 98.792 137.68 Q 98.266 138.192 97.537 138.192 L 97.537 138.192 L 97.507 138.192 L 97.507 138.192 Q 96.763 138.192 96.267 137.68 L 96.267 137.68 L 96.267 137.68 Q 95.742 137.196 95.742 136.47 L 95.742 136.47 L 95.742 122.811 L 95.742 122.811 Q 95.742 121.402 94.735 120.42 L 94.735 120.42 L 94.735 120.42 Q 93.728 119.439 92.283 119.439 L 92.283 119.439 L 92.283 119.439 Q 90.853 119.439 89.846 120.42 L 89.846 120.42 L 89.846 120.42 Q 88.839 121.402 88.839 122.811 L 88.839 122.811 L 88.839 136.47 L 88.839 136.47 Q 88.839 137.196 88.313 137.68 L 88.313 137.68 L 88.313 137.68 Q 87.817 138.192 87.073 138.192 L 87.073 138.192 L 87.044 138.192 L 87.044 138.192 Q 86.314 138.192 85.789 137.68 L 85.789 137.68 L 85.789 137.68 Q 85.263 137.196 85.263 136.47 L 85.263 136.47 L 85.263 122.811 L 85.263 122.811 Q 85.263 121.402 84.257 120.42 L 84.257 120.42 L 84.257 120.42 Q 83.25 119.439 81.819 119.439 L 81.819 119.439 L 81.819 119.439 Q 80.389 119.439 79.382 120.42 L 79.382 120.42 L 79.382 120.42 Q 78.375 121.402 78.375 122.811 L 78.375 122.811 L 78.375 122.811 Z  M 105.942 123.536 L 105.942 131.32 L 105.942 131.32 Q 105.942 132.728 106.949 133.724 L 106.949 133.724 L 106.949 133.724 Q 107.971 134.706 109.43 134.706 L 109.43 134.706 L 109.43 134.706 Q 110.875 134.706 111.897 133.724 L 111.897 133.724 L 111.897 133.724 Q 112.904 132.728 112.904 131.32 L 112.904 131.32 L 112.904 123.536 L 112.904 123.536 Q 112.904 122.825 113.429 122.313 L 113.429 122.313 L 113.429 122.313 Q 113.954 121.801 114.684 121.801 L 114.684 121.801 L 114.713 121.801 L 114.713 121.801 Q 115.457 121.801 115.954 122.313 L 115.954 122.313 L 115.954 122.313 Q 116.479 122.825 116.479 123.536 L 116.479 123.536 L 116.479 131.32 L 116.479 131.32 Q 116.479 134.151 114.407 136.171 L 114.407 136.171 L 114.407 136.171 Q 112.334 138.192 109.43 138.192 L 109.43 138.192 L 109.43 138.192 Q 106.512 138.192 104.439 136.171 L 104.439 136.171 L 104.439 136.171 Q 102.367 134.151 102.367 131.32 L 102.367 131.32 L 102.367 123.536 L 102.367 123.536 Q 102.367 122.825 102.892 122.313 L 102.892 122.313 L 102.892 122.313 Q 103.418 121.801 104.133 121.801 L 104.133 121.801 L 104.177 121.801 L 104.177 121.801 Q 104.892 121.801 105.417 122.313 L 105.417 122.313 L 105.417 122.313 Q 105.942 122.825 105.942 123.536 L 105.942 123.536 L 105.942 123.536 Z  M 127.366 134.677 L 127.366 134.677 L 127.366 134.677 Q 129.365 134.677 130.781 133.297 L 130.781 133.297 L 130.781 133.297 Q 132.196 131.917 132.196 129.968 L 132.196 129.968 L 132.196 129.968 Q 132.196 128.004 130.781 126.624 L 130.781 126.624 L 130.781 126.624 Q 129.38 125.258 127.366 125.258 L 127.366 125.258 L 127.366 125.258 Q 125.352 125.258 123.936 126.624 L 123.936 126.624 L 123.936 126.624 Q 122.535 128.004 122.535 129.968 L 122.535 129.968 L 122.535 129.968 Q 122.535 131.917 123.936 133.297 L 123.936 133.297 L 123.936 133.297 Q 125.352 134.677 127.366 134.677 Z  M 134.006 144.04 L 133.962 144.04 L 133.962 144.04 Q 133.247 144.04 132.721 143.528 L 132.721 143.528 L 132.721 143.528 Q 132.196 143.015 132.196 142.318 L 132.196 142.318 L 132.196 136.769 L 132.196 136.769 Q 130.532 138.192 127.366 138.192 L 127.366 138.192 L 127.366 138.192 Q 123.892 138.192 121.426 135.787 L 121.426 135.787 L 121.426 135.787 Q 118.96 133.383 118.96 129.996 L 118.96 129.996 L 118.96 129.996 Q 118.96 126.61 121.426 124.205 L 121.426 124.205 L 121.426 124.205 Q 123.892 121.801 127.366 121.801 L 127.366 121.801 L 127.366 121.801 Q 130.824 121.801 133.291 124.191 L 133.291 124.191 L 133.291 124.191 Q 135.757 126.596 135.772 129.968 L 135.772 129.968 L 135.772 142.318 L 135.772 142.318 Q 135.772 143.015 135.246 143.528 L 135.246 143.528 L 135.246 143.528 Q 134.721 144.04 134.006 144.04 L 134.006 144.04 L 134.006 144.04 Z  M 141.011 121.801 L 141.04 121.801 L 141.04 121.801 Q 141.784 121.801 142.28 122.313 L 142.28 122.313 L 142.28 122.313 Q 142.806 122.825 142.806 123.536 L 142.806 123.536 L 142.806 136.47 L 142.806 136.47 Q 142.806 137.196 142.28 137.68 L 142.28 137.68 L 142.28 137.68 Q 141.784 138.192 141.04 138.192 L 141.04 138.192 L 141.011 138.192 L 141.011 138.192 Q 140.281 138.192 139.756 137.68 L 139.756 137.68 L 139.756 137.68 Q 139.23 137.196 139.23 136.47 L 139.23 136.47 L 139.23 123.536 L 139.23 123.536 Q 139.23 122.825 139.756 122.313 L 139.756 122.313 L 139.756 122.313 Q 140.281 121.801 141.011 121.801 L 141.011 121.801 L 141.011 121.801 Z  M 141.025 119.951 L 141.025 119.951 L 141.025 119.951 Q 140.179 119.951 139.58 119.368 L 139.58 119.368 L 139.58 119.368 Q 138.982 118.784 138.982 117.959 L 138.982 117.959 L 138.982 117.959 Q 138.982 117.148 139.58 116.564 L 139.58 116.564 L 139.58 116.564 Q 140.179 115.981 141.025 115.981 L 141.025 115.981 L 141.025 115.981 Q 141.857 115.981 142.455 116.564 L 142.455 116.564 L 142.455 116.564 Q 143.068 117.134 143.068 117.959 L 143.068 117.959 L 143.068 117.959 Q 143.068 118.798 142.455 119.368 L 142.455 119.368 L 142.455 119.368 Q 141.857 119.951 141.025 119.951 Z " fill-rule="evenodd" fill="rgb(70,70,70)"/><path d=" M 174.467 149.71 L 145.567 99.638 C 143.054 95.271 137.117 91.847 132.091 91.847 L 74.261 91.847 C 69.235 91.847 63.297 95.271 60.784 99.638 L 31.885 149.71 C 29.372 154.076 29.372 160.924 31.885 165.29 L 60.784 215.362 C 63.297 219.729 69.235 223.153 74.261 223.153 L 80.417 223.153 L 80.417 191.332 L 78.941 190.955 C 78.658 190.892 72.03 189.101 72.03 179.772 L 72.03 174.149 L 82.554 160.359 L 79.444 157.971 L 70.585 169.531 L 63.078 150.84 L 49.319 150.84 L 49.319 146.286 C 49.319 144.809 50.513 143.616 51.989 143.616 L 56.575 143.616 L 56.701 141.794 C 56.921 138.401 59.779 135.731 63.172 135.731 L 66.407 135.731 C 66.439 135.857 66.502 135.982 66.564 136.077 C 66.627 136.202 66.659 136.328 66.721 136.453 C 66.847 136.705 66.973 136.956 67.098 137.176 C 67.161 137.27 67.193 137.364 67.256 137.459 C 67.475 137.773 67.695 138.056 67.978 138.307 L 68.135 138.464 C 68.355 138.684 68.575 138.872 68.826 139.029 C 68.92 139.092 69.046 139.155 69.14 139.218 L 69.8 139.595 C 69.926 139.658 70.051 139.72 70.177 139.752 C 70.428 139.846 70.679 139.909 70.931 140.003 L 71.276 140.097 C 71.653 140.16 72.062 140.223 72.439 140.223 C 72.91 140.223 73.381 140.16 73.821 140.066 L 74.103 139.972 C 74.449 139.877 74.826 139.752 75.14 139.595 C 75.172 139.563 75.203 139.563 75.234 139.563 L 85.067 152.474 L 97.223 152.474 C 98.225 161.486 105.841 168.304 114.909 168.306 C 124.05 168.306 131.589 161.364 132.594 152.474 L 133.254 152.474 C 142.143 152.474 149.368 159.699 149.368 168.589 L 149.368 208.797 L 174.499 165.259 C 176.98 160.893 176.98 154.076 174.467 149.71 Z  M 71.025 135.794 L 73.852 135.794 C 73.664 135.951 73.444 136.045 73.193 136.108 C 72.501 136.328 71.653 136.234 71.025 135.794 Z  M 70.02 131.867 L 70.02 131.27 C 70.303 131.427 70.554 131.616 70.774 131.867 L 70.02 131.867 Z  M 114.909 164.348 C 107.935 164.348 102.155 159.165 101.213 152.443 L 128.605 152.443 C 127.662 159.165 121.882 164.348 114.909 164.348 L 114.909 164.348 Z  M 171.075 163.311 L 153.264 194.159 L 153.264 168.589 C 153.264 164.976 152.29 161.615 150.625 158.694 L 152.196 158.694 C 154.866 158.694 157.033 160.861 157.033 163.531 L 157.033 174.965 L 160.96 174.965 L 160.96 163.531 C 160.96 158.694 157.033 154.767 152.196 154.767 L 147.672 154.767 C 143.904 150.815 138.682 148.579 133.222 148.579 L 87.014 148.579 L 78.061 136.799 C 78.533 135.919 78.815 134.946 78.815 133.878 L 78.815 131.899 L 75.046 131.899 C 74.261 128.914 71.59 126.935 68.041 126.935 L 66.062 126.935 L 66.062 131.804 L 63.14 131.804 C 58.303 131.804 54.188 135.134 53.026 139.689 L 51.958 139.689 C 50.208 139.689 48.53 140.384 47.293 141.621 C 46.056 142.858 45.361 144.536 45.361 146.286 L 45.361 154.767 L 60.408 154.767 L 68.072 173.835 L 68.072 179.74 C 68.072 188.41 72.941 192.714 76.459 194.253 L 76.459 219.195 L 74.229 219.195 C 70.585 219.195 65.968 216.525 64.146 213.383 L 35.246 163.311 C 33.424 160.17 33.424 154.83 35.246 151.657 L 64.146 101.585 C 65.968 98.444 70.585 95.774 74.229 95.774 L 132.06 95.774 C 135.704 95.774 140.322 98.444 142.143 101.585 L 171.043 151.657 C 172.897 154.83 172.897 160.139 171.075 163.311 L 171.075 163.311 Z  M 144.876 199.687 C 134.95 196.452 133.536 187.436 133.474 187.059 L 133.191 185.143 L 86.669 191.206 L 82.616 223.121 L 132.091 223.121 C 137.117 223.121 143.054 219.697 145.567 215.331 L 147.546 211.938 L 146.07 200.064 L 144.876 199.687 Z  M 135.892 198.965 C 134.008 200.001 131.871 200.567 129.673 200.567 C 123.861 200.567 118.772 196.64 117.202 191.174 L 129.987 189.51 C 130.678 191.771 132.28 195.666 135.892 198.965 L 135.892 198.965 Z  M 142.175 213.383 C 140.353 216.525 135.735 219.195 132.091 219.195 L 87.077 219.195 L 90.187 194.724 L 113.275 191.677 C 113.99 194.558 115.466 197.194 117.547 199.31 L 114.877 201.98 L 117.642 204.745 L 120.626 201.761 C 122.73 203.111 125.149 203.991 127.725 204.305 L 127.725 208.389 L 131.652 208.389 L 131.652 204.305 C 134.416 203.991 137.055 202.986 139.316 201.415 C 140.259 201.98 141.295 202.483 142.458 202.923 L 143.463 211.059 L 142.175 213.383 L 142.175 213.383 Z " fill="rgb(70,70,70)"/></g></svg>