<?xml version="1.0" standalone="no"?><!-- Generator: Gravit.io --><svg xmlns="http://www.w3.org/2000/svg" xmlns:xlink="http://www.w3.org/1999/xlink" style="isolation:isolate" viewBox="387.822 91.847 146.356 131.305" width="146.356" height="131.305"><g id="Group"><g transform="matrix(1.423,0,0,1.388,431.017,108.824)"><text transform="matrix(1,0,0,1,0,21.164)" style="font-family:&quot;Typo Round Bold Demo&quot;;font-weight:400;font-size:21px;font-style:normal;fill:#ffffff;stroke:none;">Muqi</text></g><path d=" M 532.289 149.71 L 503.39 99.638 C 500.876 95.271 494.939 91.847 489.913 91.847 L 432.083 91.847 C 427.057 91.847 421.12 95.271 418.607 99.638 L 389.707 149.71 C 387.194 154.076 387.194 160.924 389.707 165.29 L 418.607 215.362 C 421.12 219.729 427.057 223.153 432.083 223.153 L 438.24 223.153 L 438.24 191.332 L 436.763 190.955 C 436.48 190.892 429.852 189.101 429.852 179.772 L 429.852 174.149 L 440.376 160.359 L 437.266 157.971 L 428.407 169.531 L 420.9 150.84 L 407.141 150.84 L 407.141 146.286 C 407.141 144.809 408.335 143.616 409.811 143.616 L 414.397 143.616 L 414.523 141.794 C 414.743 138.401 417.601 135.731 420.994 135.731 L 424.229 135.731 C 424.261 135.857 424.324 135.982 424.386 136.077 C 424.449 136.202 424.481 136.328 424.544 136.453 C 424.669 136.705 424.795 136.956 424.921 137.176 C 424.983 137.27 425.015 137.364 425.078 137.459 C 425.297 137.773 425.517 138.056 425.8 138.307 L 425.957 138.464 C 426.177 138.684 426.397 138.872 426.648 139.029 C 426.742 139.092 426.868 139.155 426.962 139.218 L 427.622 139.595 C 427.748 139.658 427.873 139.72 427.999 139.752 C 428.25 139.846 428.502 139.909 428.753 140.003 L 429.098 140.097 C 429.475 140.16 429.884 140.223 430.261 140.223 C 430.732 140.223 431.203 140.16 431.643 140.066 L 431.926 139.972 C 432.271 139.877 432.648 139.752 432.962 139.595 C 432.994 139.563 433.025 139.563 433.056 139.563 L 442.889 152.474 L 455.045 152.474 C 456.047 161.486 463.663 168.304 472.731 168.306 C 481.872 168.306 489.411 161.364 490.416 152.474 L 491.076 152.474 C 499.966 152.474 507.19 159.699 507.19 168.589 L 507.19 208.797 L 532.321 165.259 C 534.802 160.893 534.802 154.076 532.289 149.71 Z  M 428.847 135.794 L 431.674 135.794 C 431.486 135.951 431.266 136.045 431.015 136.108 C 430.323 136.328 429.475 136.234 428.847 135.794 Z  M 427.842 131.867 L 427.842 131.27 C 428.125 131.427 428.376 131.616 428.596 131.867 L 427.842 131.867 Z  M 472.731 164.348 C 465.757 164.348 459.977 159.165 459.035 152.443 L 486.427 152.443 C 485.484 159.165 479.704 164.348 472.731 164.348 L 472.731 164.348 Z  M 528.897 163.311 L 511.086 194.159 L 511.086 168.589 C 511.086 164.976 510.112 161.615 508.447 158.694 L 510.018 158.694 C 512.688 158.694 514.855 160.861 514.855 163.531 L 514.855 174.965 L 518.782 174.965 L 518.782 163.531 C 518.782 158.694 514.855 154.767 510.018 154.767 L 505.494 154.767 C 501.727 150.815 496.505 148.579 491.044 148.579 L 444.836 148.579 L 435.884 136.799 C 436.355 135.919 436.637 134.946 436.637 133.878 L 436.637 131.899 L 432.868 131.899 C 432.083 128.914 429.413 126.935 425.863 126.935 L 423.884 126.935 L 423.884 131.804 L 420.963 131.804 C 416.125 131.804 412.01 135.134 410.848 139.689 L 409.78 139.689 C 408.03 139.689 406.352 140.384 405.115 141.621 C 403.878 142.858 403.183 144.536 403.183 146.286 L 403.183 154.767 L 418.23 154.767 L 425.894 173.835 L 425.894 179.74 C 425.894 188.41 430.763 192.714 434.282 194.253 L 434.282 219.195 L 432.051 219.195 C 428.407 219.195 423.79 216.525 421.968 213.383 L 393.068 163.311 C 391.246 160.17 391.246 154.83 393.068 151.657 L 421.968 101.585 C 423.79 98.444 428.407 95.774 432.051 95.774 L 489.882 95.774 C 493.526 95.774 498.144 98.444 499.966 101.585 L 528.865 151.657 C 530.719 154.83 530.719 160.139 528.897 163.311 L 528.897 163.311 Z  M 502.698 199.687 C 492.772 196.452 491.358 187.436 491.296 187.059 L 491.013 185.143 L 444.491 191.206 L 440.438 223.121 L 489.913 223.121 C 494.939 223.121 500.876 219.697 503.39 215.331 L 505.369 211.938 L 503.892 200.064 L 502.698 199.687 Z  M 493.714 198.965 C 491.83 200.001 489.694 200.567 487.495 200.567 C 481.683 200.567 476.594 196.64 475.024 191.174 L 487.809 189.51 C 488.5 191.771 490.102 195.666 493.714 198.965 L 493.714 198.965 Z  M 499.997 213.383 C 498.175 216.525 493.557 219.195 489.913 219.195 L 444.899 219.195 L 448.009 194.724 L 471.097 191.677 C 471.813 194.558 473.288 197.194 475.369 199.31 L 472.699 201.98 L 475.464 204.745 L 478.448 201.761 C 480.552 203.111 482.971 203.991 485.547 204.305 L 485.547 208.389 L 489.474 208.389 L 489.474 204.305 C 492.238 203.991 494.877 202.986 497.138 201.415 C 498.081 201.98 499.117 202.483 500.28 202.923 L 501.285 211.059 L 499.997 213.383 L 499.997 213.383 Z " fill="rgb(255,255,255)"/></g></svg>