<?xml version="1.0" standalone="no"?><!-- Generator: Gravit.io --><svg xmlns="http://www.w3.org/2000/svg" xmlns:xlink="http://www.w3.org/1999/xlink" style="isolation:isolate" viewBox="206.822 91.847 146.356 131.305" width="146.356" height="131.305"><g id="Group"><path d=" M 255.197 122.811 L 255.197 136.47 L 255.197 136.47 Q 255.197 137.196 254.672 137.68 L 254.672 137.68 L 254.672 137.68 Q 254.147 138.192 253.432 138.192 L 253.432 138.192 L 253.388 138.192 L 253.388 138.192 Q 252.673 138.192 252.147 137.68 L 252.147 137.68 L 252.147 137.68 Q 251.622 137.196 251.622 136.47 L 251.622 136.47 L 251.622 122.811 L 251.622 122.811 Q 251.622 119.979 253.68 117.973 L 253.68 117.973 L 253.68 117.973 Q 255.737 115.967 258.641 115.967 L 258.641 115.967 L 258.641 115.967 Q 262.115 115.967 263.881 118.215 L 263.881 118.215 L 263.881 118.215 Q 265.632 115.967 269.105 115.967 L 269.105 115.967 L 269.105 115.967 Q 272.009 115.967 274.067 117.973 L 274.067 117.973 L 274.067 117.973 Q 276.124 119.979 276.124 122.811 L 276.124 122.811 L 276.124 136.47 L 276.124 136.47 Q 276.124 137.182 275.614 137.68 L 275.614 137.68 L 275.614 137.68 Q 275.088 138.192 274.359 138.192 L 274.359 138.192 L 274.329 138.192 L 274.329 138.192 Q 273.585 138.192 273.089 137.68 L 273.089 137.68 L 273.089 137.68 Q 272.564 137.196 272.564 136.47 L 272.564 136.47 L 272.564 122.811 L 272.564 122.811 Q 272.564 121.402 271.557 120.42 L 271.557 120.42 L 271.557 120.42 Q 270.55 119.439 269.105 119.439 L 269.105 119.439 L 269.105 119.439 Q 267.675 119.439 266.668 120.42 L 266.668 120.42 L 266.668 120.42 Q 265.661 121.402 265.661 122.811 L 265.661 122.811 L 265.661 136.47 L 265.661 136.47 Q 265.661 137.196 265.136 137.68 L 265.136 137.68 L 265.136 137.68 Q 264.639 138.192 263.895 138.192 L 263.895 138.192 L 263.866 138.192 L 263.866 138.192 Q 263.136 138.192 262.611 137.68 L 262.611 137.68 L 262.611 137.68 Q 262.086 137.196 262.086 136.47 L 262.086 136.47 L 262.086 122.811 L 262.086 122.811 Q 262.086 121.402 261.079 120.42 L 261.079 120.42 L 261.079 120.42 Q 260.072 119.439 258.641 119.439 L 258.641 119.439 L 258.641 119.439 Q 257.211 119.439 256.204 120.42 L 256.204 120.42 L 256.204 120.42 Q 255.197 121.402 255.197 122.811 L 255.197 122.811 L 255.197 122.811 Z  M 282.764 123.536 L 282.764 131.32 L 282.764 131.32 Q 282.764 132.728 283.771 133.724 L 283.771 133.724 L 283.771 133.724 Q 284.793 134.706 286.252 134.706 L 286.252 134.706 L 286.252 134.706 Q 287.697 134.706 288.719 133.724 L 288.719 133.724 L 288.719 133.724 Q 289.726 132.728 289.726 131.32 L 289.726 131.32 L 289.726 123.536 L 289.726 123.536 Q 289.726 122.825 290.251 122.313 L 290.251 122.313 L 290.251 122.313 Q 290.776 121.801 291.506 121.801 L 291.506 121.801 L 291.535 121.801 L 291.535 121.801 Q 292.279 121.801 292.776 122.313 L 292.776 122.313 L 292.776 122.313 Q 293.301 122.825 293.301 123.536 L 293.301 123.536 L 293.301 131.32 L 293.301 131.32 Q 293.301 134.151 291.229 136.171 L 291.229 136.171 L 291.229 136.171 Q 289.156 138.192 286.252 138.192 L 286.252 138.192 L 286.252 138.192 Q 283.334 138.192 281.261 136.171 L 281.261 136.171 L 281.261 136.171 Q 279.189 134.151 279.189 131.32 L 279.189 131.32 L 279.189 123.536 L 279.189 123.536 Q 279.189 122.825 279.714 122.313 L 279.714 122.313 L 279.714 122.313 Q 280.24 121.801 280.955 121.801 L 280.955 121.801 L 280.999 121.801 L 280.999 121.801 Q 281.714 121.801 282.239 122.313 L 282.239 122.313 L 282.239 122.313 Q 282.764 122.825 282.764 123.536 L 282.764 123.536 L 282.764 123.536 Z  M 304.188 134.677 L 304.188 134.677 L 304.188 134.677 Q 306.187 134.677 307.603 133.297 L 307.603 133.297 L 307.603 133.297 Q 309.018 131.917 309.018 129.968 L 309.018 129.968 L 309.018 129.968 Q 309.018 128.004 307.603 126.624 L 307.603 126.624 L 307.603 126.624 Q 306.202 125.258 304.188 125.258 L 304.188 125.258 L 304.188 125.258 Q 302.174 125.258 300.758 126.624 L 300.758 126.624 L 300.758 126.624 Q 299.357 128.004 299.357 129.968 L 299.357 129.968 L 299.357 129.968 Q 299.357 131.917 300.758 133.297 L 300.758 133.297 L 300.758 133.297 Q 302.174 134.677 304.188 134.677 Z  M 310.828 144.04 L 310.784 144.04 L 310.784 144.04 Q 310.069 144.04 309.544 143.528 L 309.544 143.528 L 309.544 143.528 Q 309.018 143.015 309.018 142.318 L 309.018 142.318 L 309.018 136.769 L 309.018 136.769 Q 307.355 138.192 304.188 138.192 L 304.188 138.192 L 304.188 138.192 Q 300.714 138.192 298.248 135.787 L 298.248 135.787 L 298.248 135.787 Q 295.782 133.383 295.782 129.996 L 295.782 129.996 L 295.782 129.996 Q 295.782 126.61 298.248 124.205 L 298.248 124.205 L 298.248 124.205 Q 300.714 121.801 304.188 121.801 L 304.188 121.801 L 304.188 121.801 Q 307.646 121.801 310.113 124.191 L 310.113 124.191 L 310.113 124.191 Q 312.579 126.596 312.594 129.968 L 312.594 129.968 L 312.594 142.318 L 312.594 142.318 Q 312.594 143.015 312.068 143.528 L 312.068 143.528 L 312.068 143.528 Q 311.543 144.04 310.828 144.04 L 310.828 144.04 L 310.828 144.04 Z  M 317.833 121.801 L 317.862 121.801 L 317.862 121.801 Q 318.606 121.801 319.102 122.313 L 319.102 122.313 L 319.102 122.313 Q 319.628 122.825 319.628 123.536 L 319.628 123.536 L 319.628 136.47 L 319.628 136.47 Q 319.628 137.196 319.102 137.68 L 319.102 137.68 L 319.102 137.68 Q 318.606 138.192 317.862 138.192 L 317.862 138.192 L 317.833 138.192 L 317.833 138.192 Q 317.103 138.192 316.578 137.68 L 316.578 137.68 L 316.578 137.68 Q 316.052 137.196 316.052 136.47 L 316.052 136.47 L 316.052 123.536 L 316.052 123.536 Q 316.052 122.825 316.578 122.313 L 316.578 122.313 L 316.578 122.313 Q 317.103 121.801 317.833 121.801 L 317.833 121.801 L 317.833 121.801 Z  M 317.847 119.951 L 317.847 119.951 L 317.847 119.951 Q 317.001 119.951 316.402 119.368 L 316.402 119.368 L 316.402 119.368 Q 315.804 118.784 315.804 117.959 L 315.804 117.959 L 315.804 117.959 Q 315.804 117.148 316.402 116.564 L 316.402 116.564 L 316.402 116.564 Q 317.001 115.981 317.847 115.981 L 317.847 115.981 L 317.847 115.981 Q 318.679 115.981 319.277 116.564 L 319.277 116.564 L 319.277 116.564 Q 319.89 117.134 319.89 117.959 L 319.89 117.959 L 319.89 117.959 Q 319.89 118.798 319.277 119.368 L 319.277 119.368 L 319.277 119.368 Q 318.679 119.951 317.847 119.951 Z " fill-rule="evenodd" fill="rgb(136,96,208)"/><path d=" M 351.289 149.71 L 322.39 99.638 C 319.876 95.271 313.939 91.847 308.913 91.847 L 251.083 91.847 C 246.057 91.847 240.12 95.271 237.607 99.638 L 208.707 149.71 C 206.194 154.076 206.194 160.924 208.707 165.29 L 237.607 215.362 C 240.12 219.729 246.057 223.153 251.083 223.153 L 257.24 223.153 L 257.24 191.332 L 255.763 190.955 C 255.48 190.892 248.852 189.101 248.852 179.772 L 248.852 174.149 L 259.376 160.359 L 256.266 157.971 L 247.407 169.531 L 239.9 150.84 L 226.141 150.84 L 226.141 146.286 C 226.141 144.809 227.335 143.616 228.811 143.616 L 233.397 143.616 L 233.523 141.794 C 233.743 138.401 236.601 135.731 239.994 135.731 L 243.229 135.731 C 243.261 135.857 243.324 135.982 243.386 136.077 C 243.449 136.202 243.481 136.328 243.544 136.453 C 243.669 136.705 243.795 136.956 243.921 137.176 C 243.983 137.27 244.015 137.364 244.078 137.459 C 244.297 137.773 244.517 138.056 244.8 138.307 L 244.957 138.464 C 245.177 138.684 245.397 138.872 245.648 139.029 C 245.742 139.092 245.868 139.155 245.962 139.218 L 246.622 139.595 C 246.748 139.658 246.873 139.72 246.999 139.752 C 247.25 139.846 247.502 139.909 247.753 140.003 L 248.098 140.097 C 248.475 140.16 248.884 140.223 249.261 140.223 C 249.732 140.223 250.203 140.16 250.643 140.066 L 250.926 139.972 C 251.271 139.877 251.648 139.752 251.962 139.595 C 251.994 139.563 252.025 139.563 252.056 139.563 L 261.889 152.474 L 274.045 152.474 C 275.047 161.486 282.663 168.304 291.731 168.306 C 300.872 168.306 308.411 161.364 309.416 152.474 L 310.076 152.474 C 318.966 152.474 326.19 159.699 326.19 168.589 L 326.19 208.797 L 351.321 165.259 C 353.802 160.893 353.802 154.076 351.289 149.71 Z  M 247.847 135.794 L 250.674 135.794 C 250.486 135.951 250.266 136.045 250.015 136.108 C 249.323 136.328 248.475 136.234 247.847 135.794 Z  M 246.842 131.867 L 246.842 131.27 C 247.125 131.427 247.376 131.616 247.596 131.867 L 246.842 131.867 Z  M 291.731 164.348 C 284.757 164.348 278.977 159.165 278.035 152.443 L 305.427 152.443 C 304.484 159.165 298.704 164.348 291.731 164.348 L 291.731 164.348 Z  M 347.897 163.311 L 330.086 194.159 L 330.086 168.589 C 330.086 164.976 329.112 161.615 327.447 158.694 L 329.018 158.694 C 331.688 158.694 333.855 160.861 333.855 163.531 L 333.855 174.965 L 337.782 174.965 L 337.782 163.531 C 337.782 158.694 333.855 154.767 329.018 154.767 L 324.494 154.767 C 320.727 150.815 315.505 148.579 310.044 148.579 L 263.836 148.579 L 254.884 136.799 C 255.355 135.919 255.637 134.946 255.637 133.878 L 255.637 131.899 L 251.868 131.899 C 251.083 128.914 248.413 126.935 244.863 126.935 L 242.884 126.935 L 242.884 131.804 L 239.963 131.804 C 235.125 131.804 231.01 135.134 229.848 139.689 L 228.78 139.689 C 227.03 139.689 225.352 140.384 224.115 141.621 C 222.878 142.858 222.183 144.536 222.183 146.286 L 222.183 154.767 L 237.23 154.767 L 244.894 173.835 L 244.894 179.74 C 244.894 188.41 249.763 192.714 253.282 194.253 L 253.282 219.195 L 251.051 219.195 C 247.407 219.195 242.79 216.525 240.968 213.383 L 212.068 163.311 C 210.246 160.17 210.246 154.83 212.068 151.657 L 240.968 101.585 C 242.79 98.444 247.407 95.774 251.051 95.774 L 308.882 95.774 C 312.526 95.774 317.144 98.444 318.966 101.585 L 347.865 151.657 C 349.719 154.83 349.719 160.139 347.897 163.311 L 347.897 163.311 Z  M 321.698 199.687 C 311.772 196.452 310.358 187.436 310.296 187.059 L 310.013 185.143 L 263.491 191.206 L 259.438 223.121 L 308.913 223.121 C 313.939 223.121 319.876 219.697 322.39 215.331 L 324.369 211.938 L 322.892 200.064 L 321.698 199.687 Z  M 312.714 198.965 C 310.83 200.001 308.694 200.567 306.495 200.567 C 300.683 200.567 295.594 196.64 294.024 191.174 L 306.809 189.51 C 307.5 191.771 309.102 195.666 312.714 198.965 L 312.714 198.965 Z  M 318.997 213.383 C 317.175 216.525 312.557 219.195 308.913 219.195 L 263.899 219.195 L 267.009 194.724 L 290.097 191.677 C 290.813 194.558 292.288 197.194 294.369 199.31 L 291.699 201.98 L 294.464 204.745 L 297.448 201.761 C 299.552 203.111 301.971 203.991 304.547 204.305 L 304.547 208.389 L 308.474 208.389 L 308.474 204.305 C 311.238 203.991 313.877 202.986 316.138 201.415 C 317.081 201.98 318.117 202.483 319.28 202.923 L 320.285 211.059 L 318.997 213.383 L 318.997 213.383 Z " fill="rgb(136,96,208)"/></g></svg>