<?xml version="1.0" standalone="no"?><!-- Generator: Gravit.io --><svg xmlns="http://www.w3.org/2000/svg" xmlns:xlink="http://www.w3.org/1999/xlink" style="isolation:isolate" viewBox="80.758 143.745 82.055 34.664" width="82.055" height="34.664"><path d=" M 85.064 159.39 L 85.064 169.058 L 85.064 169.058 Q 85.064 169.954 84.432 170.552 L 84.432 170.552 L 84.432 170.552 Q 83.799 171.185 82.938 171.185 L 82.938 171.185 L 82.885 171.185 L 82.885 171.185 Q 82.023 171.185 81.391 170.552 L 81.391 170.552 L 81.391 170.552 Q 80.758 169.954 80.758 169.058 L 80.758 169.058 L 80.758 159.39 L 80.758 159.39 Q 80.758 155.909 83.236 153.413 L 83.236 153.413 L 83.236 153.413 Q 85.715 150.935 89.213 150.935 L 89.213 150.935 L 89.213 150.935 Q 93.396 150.935 95.523 153.712 L 95.523 153.712 L 95.523 153.712 Q 97.633 150.935 101.816 150.935 L 101.816 150.935 L 101.816 150.935 Q 105.314 150.935 107.793 153.413 L 107.793 153.413 L 107.793 153.413 Q 110.271 155.909 110.271 159.39 L 110.271 159.39 L 110.271 169.058 L 110.271 169.058 Q 110.271 169.937 109.656 170.552 L 109.656 170.552 L 109.656 170.552 Q 109.023 171.185 108.145 171.185 L 108.145 171.185 L 108.109 171.185 L 108.109 171.185 Q 107.213 171.185 106.615 170.552 L 106.615 170.552 L 106.615 170.552 Q 105.982 169.954 105.982 169.058 L 105.982 169.058 L 105.982 159.39 L 105.982 159.39 Q 105.982 157.667 104.77 156.454 L 104.77 156.454 L 104.77 156.454 Q 103.557 155.241 101.816 155.241 L 101.816 155.241 L 101.816 155.241 Q 100.094 155.241 98.881 156.454 L 98.881 156.454 L 98.881 156.454 Q 97.668 157.667 97.668 159.39 L 97.668 159.39 L 97.668 169.058 L 97.668 169.058 Q 97.668 169.954 97.035 170.552 L 97.035 170.552 L 97.035 170.552 Q 96.438 171.185 95.541 171.185 L 95.541 171.185 L 95.506 171.185 L 95.506 171.185 Q 94.627 171.185 93.994 170.552 L 93.994 170.552 L 93.994 170.552 Q 93.361 169.954 93.361 169.058 L 93.361 169.058 L 93.361 159.39 L 93.361 159.39 Q 93.361 157.667 92.148 156.454 L 92.148 156.454 L 92.148 156.454 Q 90.936 155.241 89.213 155.241 L 89.213 155.241 L 89.213 155.241 Q 87.49 155.241 86.277 156.454 L 86.277 156.454 L 86.277 156.454 Q 85.064 157.667 85.064 159.39 L 85.064 159.39 L 85.064 159.39 Z  M 118.094 153.079 L 118.094 162.694 L 118.094 162.694 Q 118.094 164.435 119.307 165.665 L 119.307 165.665 L 119.307 165.665 Q 120.537 166.878 122.295 166.878 L 122.295 166.878 L 122.295 166.878 Q 124.035 166.878 125.266 165.665 L 125.266 165.665 L 125.266 165.665 Q 126.479 164.435 126.479 162.694 L 126.479 162.694 L 126.479 153.079 L 126.479 153.079 Q 126.479 152.2 127.111 151.567 L 127.111 151.567 L 127.111 151.567 Q 127.744 150.935 128.623 150.935 L 128.623 150.935 L 128.658 150.935 L 128.658 150.935 Q 129.555 150.935 130.152 151.567 L 130.152 151.567 L 130.152 151.567 Q 130.785 152.2 130.785 153.079 L 130.785 153.079 L 130.785 162.694 L 130.785 162.694 Q 130.785 166.192 128.289 168.688 L 128.289 168.688 L 128.289 168.688 Q 125.793 171.185 122.295 171.185 L 122.295 171.185 L 122.295 171.185 Q 118.779 171.185 116.283 168.688 L 116.283 168.688 L 116.283 168.688 Q 113.787 166.192 113.787 162.694 L 113.787 162.694 L 113.787 153.079 L 113.787 153.079 Q 113.787 152.2 114.42 151.567 L 114.42 151.567 L 114.42 151.567 Q 115.053 150.935 115.914 150.935 L 115.914 150.935 L 115.967 150.935 L 115.967 150.935 Q 116.828 150.935 117.461 151.567 L 117.461 151.567 L 117.461 151.567 Q 118.094 152.2 118.094 153.079 L 118.094 153.079 L 118.094 153.079 Z  M 143.898 166.843 L 143.898 166.843 L 143.898 166.843 Q 146.307 166.843 148.012 165.138 L 148.012 165.138 L 148.012 165.138 Q 149.717 163.433 149.717 161.024 L 149.717 161.024 L 149.717 161.024 Q 149.717 158.599 148.012 156.894 L 148.012 156.894 L 148.012 156.894 Q 146.324 155.206 143.898 155.206 L 143.898 155.206 L 143.898 155.206 Q 141.473 155.206 139.768 156.894 L 139.768 156.894 L 139.768 156.894 Q 138.08 158.599 138.08 161.024 L 138.08 161.024 L 138.08 161.024 Q 138.08 163.433 139.768 165.138 L 139.768 165.138 L 139.768 165.138 Q 141.473 166.843 143.898 166.843 Z  M 151.896 178.409 L 151.844 178.409 L 151.844 178.409 Q 150.982 178.409 150.35 177.776 L 150.35 177.776 L 150.35 177.776 Q 149.717 177.144 149.717 176.282 L 149.717 176.282 L 149.717 169.427 L 149.717 169.427 Q 147.713 171.185 143.898 171.185 L 143.898 171.185 L 143.898 171.185 Q 139.715 171.185 136.744 168.214 L 136.744 168.214 L 136.744 168.214 Q 133.773 165.243 133.773 161.06 L 133.773 161.06 L 133.773 161.06 Q 133.773 156.876 136.744 153.905 L 136.744 153.905 L 136.744 153.905 Q 139.715 150.935 143.898 150.935 L 143.898 150.935 L 143.898 150.935 Q 148.064 150.935 151.035 153.888 L 151.035 153.888 L 151.035 153.888 Q 154.006 156.858 154.023 161.024 L 154.023 161.024 L 154.023 176.282 L 154.023 176.282 Q 154.023 177.144 153.391 177.776 L 153.391 177.776 L 153.391 177.776 Q 152.758 178.409 151.896 178.409 L 151.896 178.409 L 151.896 178.409 Z  M 160.334 150.935 L 160.369 150.935 L 160.369 150.935 Q 161.266 150.935 161.863 151.567 L 161.863 151.567 L 161.863 151.567 Q 162.496 152.2 162.496 153.079 L 162.496 153.079 L 162.496 169.058 L 162.496 169.058 Q 162.496 169.954 161.863 170.552 L 161.863 170.552 L 161.863 170.552 Q 161.266 171.185 160.369 171.185 L 160.369 171.185 L 160.334 171.185 L 160.334 171.185 Q 159.455 171.185 158.822 170.552 L 158.822 170.552 L 158.822 170.552 Q 158.189 169.954 158.189 169.058 L 158.189 169.058 L 158.189 153.079 L 158.189 153.079 Q 158.189 152.2 158.822 151.567 L 158.822 151.567 L 158.822 151.567 Q 159.455 150.935 160.334 150.935 L 160.334 150.935 L 160.334 150.935 Z  M 160.352 148.649 L 160.352 148.649 L 160.352 148.649 Q 159.332 148.649 158.611 147.929 L 158.611 147.929 L 158.611 147.929 Q 157.891 147.208 157.891 146.188 L 157.891 146.188 L 157.891 146.188 Q 157.891 145.187 158.611 144.466 L 158.611 144.466 L 158.611 144.466 Q 159.332 143.745 160.352 143.745 L 160.352 143.745 L 160.352 143.745 Q 161.354 143.745 162.074 144.466 L 162.074 144.466 L 162.074 144.466 Q 162.813 145.169 162.813 146.188 L 162.813 146.188 L 162.813 146.188 Q 162.813 147.226 162.074 147.929 L 162.074 147.929 L 162.074 147.929 Q 161.354 148.649 160.352 148.649 Z " fill-rule="evenodd" fill="rgb(136,96,208)"/></svg>