<?xml version="1.0" standalone="no"?><!-- Generator: Gravit.io --><svg xmlns="http://www.w3.org/2000/svg" xmlns:xlink="http://www.w3.org/1999/xlink" style="isolation:isolate" viewBox="237.758 143.745 82.055 34.664" width="82.055" height="34.664"><path d=" M 242.064 159.39 L 242.064 169.058 L 242.064 169.058 Q 242.064 169.954 241.432 170.552 L 241.432 170.552 L 241.432 170.552 Q 240.799 171.185 239.938 171.185 L 239.938 171.185 L 239.885 171.185 L 239.885 171.185 Q 239.023 171.185 238.391 170.552 L 238.391 170.552 L 238.391 170.552 Q 237.758 169.954 237.758 169.058 L 237.758 169.058 L 237.758 159.39 L 237.758 159.39 Q 237.758 155.909 240.236 153.413 L 240.236 153.413 L 240.236 153.413 Q 242.715 150.935 246.213 150.935 L 246.213 150.935 L 246.213 150.935 Q 250.396 150.935 252.523 153.712 L 252.523 153.712 L 252.523 153.712 Q 254.633 150.935 258.816 150.935 L 258.816 150.935 L 258.816 150.935 Q 262.314 150.935 264.793 153.413 L 264.793 153.413 L 264.793 153.413 Q 267.271 155.909 267.271 159.39 L 267.271 159.39 L 267.271 169.058 L 267.271 169.058 Q 267.271 169.937 266.656 170.552 L 266.656 170.552 L 266.656 170.552 Q 266.023 171.185 265.145 171.185 L 265.145 171.185 L 265.109 171.185 L 265.109 171.185 Q 264.213 171.185 263.615 170.552 L 263.615 170.552 L 263.615 170.552 Q 262.982 169.954 262.982 169.058 L 262.982 169.058 L 262.982 159.39 L 262.982 159.39 Q 262.982 157.667 261.77 156.454 L 261.77 156.454 L 261.77 156.454 Q 260.557 155.241 258.816 155.241 L 258.816 155.241 L 258.816 155.241 Q 257.094 155.241 255.881 156.454 L 255.881 156.454 L 255.881 156.454 Q 254.668 157.667 254.668 159.39 L 254.668 159.39 L 254.668 169.058 L 254.668 169.058 Q 254.668 169.954 254.035 170.552 L 254.035 170.552 L 254.035 170.552 Q 253.438 171.185 252.541 171.185 L 252.541 171.185 L 252.506 171.185 L 252.506 171.185 Q 251.627 171.185 250.994 170.552 L 250.994 170.552 L 250.994 170.552 Q 250.361 169.954 250.361 169.058 L 250.361 169.058 L 250.361 159.39 L 250.361 159.39 Q 250.361 157.667 249.148 156.454 L 249.148 156.454 L 249.148 156.454 Q 247.936 155.241 246.213 155.241 L 246.213 155.241 L 246.213 155.241 Q 244.49 155.241 243.277 156.454 L 243.277 156.454 L 243.277 156.454 Q 242.064 157.667 242.064 159.39 L 242.064 159.39 L 242.064 159.39 Z  M 275.094 153.079 L 275.094 162.694 L 275.094 162.694 Q 275.094 164.435 276.307 165.665 L 276.307 165.665 L 276.307 165.665 Q 277.537 166.878 279.295 166.878 L 279.295 166.878 L 279.295 166.878 Q 281.035 166.878 282.266 165.665 L 282.266 165.665 L 282.266 165.665 Q 283.479 164.435 283.479 162.694 L 283.479 162.694 L 283.479 153.079 L 283.479 153.079 Q 283.479 152.2 284.111 151.567 L 284.111 151.567 L 284.111 151.567 Q 284.744 150.935 285.623 150.935 L 285.623 150.935 L 285.658 150.935 L 285.658 150.935 Q 286.555 150.935 287.152 151.567 L 287.152 151.567 L 287.152 151.567 Q 287.785 152.2 287.785 153.079 L 287.785 153.079 L 287.785 162.694 L 287.785 162.694 Q 287.785 166.192 285.289 168.688 L 285.289 168.688 L 285.289 168.688 Q 282.793 171.185 279.295 171.185 L 279.295 171.185 L 279.295 171.185 Q 275.779 171.185 273.283 168.688 L 273.283 168.688 L 273.283 168.688 Q 270.787 166.192 270.787 162.694 L 270.787 162.694 L 270.787 153.079 L 270.787 153.079 Q 270.787 152.2 271.42 151.567 L 271.42 151.567 L 271.42 151.567 Q 272.053 150.935 272.914 150.935 L 272.914 150.935 L 272.967 150.935 L 272.967 150.935 Q 273.828 150.935 274.461 151.567 L 274.461 151.567 L 274.461 151.567 Q 275.094 152.2 275.094 153.079 L 275.094 153.079 L 275.094 153.079 Z  M 300.898 166.843 L 300.898 166.843 L 300.898 166.843 Q 303.307 166.843 305.012 165.138 L 305.012 165.138 L 305.012 165.138 Q 306.717 163.433 306.717 161.024 L 306.717 161.024 L 306.717 161.024 Q 306.717 158.599 305.012 156.894 L 305.012 156.894 L 305.012 156.894 Q 303.324 155.206 300.898 155.206 L 300.898 155.206 L 300.898 155.206 Q 298.473 155.206 296.768 156.894 L 296.768 156.894 L 296.768 156.894 Q 295.08 158.599 295.08 161.024 L 295.08 161.024 L 295.08 161.024 Q 295.08 163.433 296.768 165.138 L 296.768 165.138 L 296.768 165.138 Q 298.473 166.843 300.898 166.843 Z  M 308.896 178.409 L 308.844 178.409 L 308.844 178.409 Q 307.982 178.409 307.35 177.776 L 307.35 177.776 L 307.35 177.776 Q 306.717 177.144 306.717 176.282 L 306.717 176.282 L 306.717 169.427 L 306.717 169.427 Q 304.713 171.185 300.898 171.185 L 300.898 171.185 L 300.898 171.185 Q 296.715 171.185 293.744 168.214 L 293.744 168.214 L 293.744 168.214 Q 290.773 165.243 290.773 161.06 L 290.773 161.06 L 290.773 161.06 Q 290.773 156.876 293.744 153.905 L 293.744 153.905 L 293.744 153.905 Q 296.715 150.935 300.898 150.935 L 300.898 150.935 L 300.898 150.935 Q 305.064 150.935 308.035 153.888 L 308.035 153.888 L 308.035 153.888 Q 311.006 156.858 311.023 161.024 L 311.023 161.024 L 311.023 176.282 L 311.023 176.282 Q 311.023 177.144 310.391 177.776 L 310.391 177.776 L 310.391 177.776 Q 309.758 178.409 308.896 178.409 L 308.896 178.409 L 308.896 178.409 Z  M 317.334 150.935 L 317.369 150.935 L 317.369 150.935 Q 318.266 150.935 318.863 151.567 L 318.863 151.567 L 318.863 151.567 Q 319.496 152.2 319.496 153.079 L 319.496 153.079 L 319.496 169.058 L 319.496 169.058 Q 319.496 169.954 318.863 170.552 L 318.863 170.552 L 318.863 170.552 Q 318.266 171.185 317.369 171.185 L 317.369 171.185 L 317.334 171.185 L 317.334 171.185 Q 316.455 171.185 315.822 170.552 L 315.822 170.552 L 315.822 170.552 Q 315.189 169.954 315.189 169.058 L 315.189 169.058 L 315.189 153.079 L 315.189 153.079 Q 315.189 152.2 315.822 151.567 L 315.822 151.567 L 315.822 151.567 Q 316.455 150.935 317.334 150.935 L 317.334 150.935 L 317.334 150.935 Z  M 317.352 148.649 L 317.352 148.649 L 317.352 148.649 Q 316.332 148.649 315.611 147.929 L 315.611 147.929 L 315.611 147.929 Q 314.891 147.208 314.891 146.188 L 314.891 146.188 L 314.891 146.188 Q 314.891 145.187 315.611 144.466 L 315.611 144.466 L 315.611 144.466 Q 316.332 143.745 317.352 143.745 L 317.352 143.745 L 317.352 143.745 Q 318.354 143.745 319.074 144.466 L 319.074 144.466 L 319.074 144.466 Q 319.813 145.169 319.813 146.188 L 319.813 146.188 L 319.813 146.188 Q 319.813 147.226 319.074 147.929 L 319.074 147.929 L 319.074 147.929 Q 318.354 148.649 317.352 148.649 Z " fill-rule="evenodd" fill="rgb(70,70,70)"/></svg>