<?xml version="1.0" standalone="no"?><!-- Generator: Gravit.io --><svg xmlns="http://www.w3.org/2000/svg" xmlns:xlink="http://www.w3.org/1999/xlink" style="isolation:isolate" viewBox="410.758 143.745 82.055 34.664" width="82.055" height="34.664"><path d=" M 415.064 159.39 L 415.064 169.058 L 415.064 169.058 Q 415.064 169.954 414.432 170.552 L 414.432 170.552 L 414.432 170.552 Q 413.799 171.185 412.938 171.185 L 412.938 171.185 L 412.885 171.185 L 412.885 171.185 Q 412.023 171.185 411.391 170.552 L 411.391 170.552 L 411.391 170.552 Q 410.758 169.954 410.758 169.058 L 410.758 169.058 L 410.758 159.39 L 410.758 159.39 Q 410.758 155.909 413.236 153.413 L 413.236 153.413 L 413.236 153.413 Q 415.715 150.935 419.213 150.935 L 419.213 150.935 L 419.213 150.935 Q 423.396 150.935 425.523 153.712 L 425.523 153.712 L 425.523 153.712 Q 427.633 150.935 431.816 150.935 L 431.816 150.935 L 431.816 150.935 Q 435.314 150.935 437.793 153.413 L 437.793 153.413 L 437.793 153.413 Q 440.271 155.909 440.271 159.39 L 440.271 159.39 L 440.271 169.058 L 440.271 169.058 Q 440.271 169.937 439.656 170.552 L 439.656 170.552 L 439.656 170.552 Q 439.023 171.185 438.145 171.185 L 438.145 171.185 L 438.109 171.185 L 438.109 171.185 Q 437.213 171.185 436.615 170.552 L 436.615 170.552 L 436.615 170.552 Q 435.982 169.954 435.982 169.058 L 435.982 169.058 L 435.982 159.39 L 435.982 159.39 Q 435.982 157.667 434.77 156.454 L 434.77 156.454 L 434.77 156.454 Q 433.557 155.241 431.816 155.241 L 431.816 155.241 L 431.816 155.241 Q 430.094 155.241 428.881 156.454 L 428.881 156.454 L 428.881 156.454 Q 427.668 157.667 427.668 159.39 L 427.668 159.39 L 427.668 169.058 L 427.668 169.058 Q 427.668 169.954 427.035 170.552 L 427.035 170.552 L 427.035 170.552 Q 426.438 171.185 425.541 171.185 L 425.541 171.185 L 425.506 171.185 L 425.506 171.185 Q 424.627 171.185 423.994 170.552 L 423.994 170.552 L 423.994 170.552 Q 423.361 169.954 423.361 169.058 L 423.361 169.058 L 423.361 159.39 L 423.361 159.39 Q 423.361 157.667 422.148 156.454 L 422.148 156.454 L 422.148 156.454 Q 420.936 155.241 419.213 155.241 L 419.213 155.241 L 419.213 155.241 Q 417.49 155.241 416.277 156.454 L 416.277 156.454 L 416.277 156.454 Q 415.064 157.667 415.064 159.39 L 415.064 159.39 L 415.064 159.39 Z  M 448.094 153.079 L 448.094 162.694 L 448.094 162.694 Q 448.094 164.435 449.307 165.665 L 449.307 165.665 L 449.307 165.665 Q 450.537 166.878 452.295 166.878 L 452.295 166.878 L 452.295 166.878 Q 454.035 166.878 455.266 165.665 L 455.266 165.665 L 455.266 165.665 Q 456.479 164.435 456.479 162.694 L 456.479 162.694 L 456.479 153.079 L 456.479 153.079 Q 456.479 152.2 457.111 151.567 L 457.111 151.567 L 457.111 151.567 Q 457.744 150.935 458.623 150.935 L 458.623 150.935 L 458.658 150.935 L 458.658 150.935 Q 459.555 150.935 460.152 151.567 L 460.152 151.567 L 460.152 151.567 Q 460.785 152.2 460.785 153.079 L 460.785 153.079 L 460.785 162.694 L 460.785 162.694 Q 460.785 166.192 458.289 168.688 L 458.289 168.688 L 458.289 168.688 Q 455.793 171.185 452.295 171.185 L 452.295 171.185 L 452.295 171.185 Q 448.779 171.185 446.283 168.688 L 446.283 168.688 L 446.283 168.688 Q 443.787 166.192 443.787 162.694 L 443.787 162.694 L 443.787 153.079 L 443.787 153.079 Q 443.787 152.2 444.42 151.567 L 444.42 151.567 L 444.42 151.567 Q 445.053 150.935 445.914 150.935 L 445.914 150.935 L 445.967 150.935 L 445.967 150.935 Q 446.828 150.935 447.461 151.567 L 447.461 151.567 L 447.461 151.567 Q 448.094 152.2 448.094 153.079 L 448.094 153.079 L 448.094 153.079 Z  M 473.898 166.843 L 473.898 166.843 L 473.898 166.843 Q 476.307 166.843 478.012 165.138 L 478.012 165.138 L 478.012 165.138 Q 479.717 163.433 479.717 161.024 L 479.717 161.024 L 479.717 161.024 Q 479.717 158.599 478.012 156.894 L 478.012 156.894 L 478.012 156.894 Q 476.324 155.206 473.898 155.206 L 473.898 155.206 L 473.898 155.206 Q 471.473 155.206 469.768 156.894 L 469.768 156.894 L 469.768 156.894 Q 468.08 158.599 468.08 161.024 L 468.08 161.024 L 468.08 161.024 Q 468.08 163.433 469.768 165.138 L 469.768 165.138 L 469.768 165.138 Q 471.473 166.843 473.898 166.843 Z  M 481.896 178.409 L 481.844 178.409 L 481.844 178.409 Q 480.982 178.409 480.35 177.776 L 480.35 177.776 L 480.35 177.776 Q 479.717 177.144 479.717 176.282 L 479.717 176.282 L 479.717 169.427 L 479.717 169.427 Q 477.713 171.185 473.898 171.185 L 473.898 171.185 L 473.898 171.185 Q 469.715 171.185 466.744 168.214 L 466.744 168.214 L 466.744 168.214 Q 463.773 165.243 463.773 161.06 L 463.773 161.06 L 463.773 161.06 Q 463.773 156.876 466.744 153.905 L 466.744 153.905 L 466.744 153.905 Q 469.715 150.935 473.898 150.935 L 473.898 150.935 L 473.898 150.935 Q 478.064 150.935 481.035 153.888 L 481.035 153.888 L 481.035 153.888 Q 484.006 156.858 484.023 161.024 L 484.023 161.024 L 484.023 176.282 L 484.023 176.282 Q 484.023 177.144 483.391 177.776 L 483.391 177.776 L 483.391 177.776 Q 482.758 178.409 481.896 178.409 L 481.896 178.409 L 481.896 178.409 Z  M 490.334 150.935 L 490.369 150.935 L 490.369 150.935 Q 491.266 150.935 491.863 151.567 L 491.863 151.567 L 491.863 151.567 Q 492.496 152.2 492.496 153.079 L 492.496 153.079 L 492.496 169.058 L 492.496 169.058 Q 492.496 169.954 491.863 170.552 L 491.863 170.552 L 491.863 170.552 Q 491.266 171.185 490.369 171.185 L 490.369 171.185 L 490.334 171.185 L 490.334 171.185 Q 489.455 171.185 488.822 170.552 L 488.822 170.552 L 488.822 170.552 Q 488.189 169.954 488.189 169.058 L 488.189 169.058 L 488.189 153.079 L 488.189 153.079 Q 488.189 152.2 488.822 151.567 L 488.822 151.567 L 488.822 151.567 Q 489.455 150.935 490.334 150.935 L 490.334 150.935 L 490.334 150.935 Z  M 490.352 148.649 L 490.352 148.649 L 490.352 148.649 Q 489.332 148.649 488.611 147.929 L 488.611 147.929 L 488.611 147.929 Q 487.891 147.208 487.891 146.188 L 487.891 146.188 L 487.891 146.188 Q 487.891 145.187 488.611 144.466 L 488.611 144.466 L 488.611 144.466 Q 489.332 143.745 490.352 143.745 L 490.352 143.745 L 490.352 143.745 Q 491.354 143.745 492.074 144.466 L 492.074 144.466 L 492.074 144.466 Q 492.813 145.169 492.813 146.188 L 492.813 146.188 L 492.813 146.188 Q 492.813 147.226 492.074 147.929 L 492.074 147.929 L 492.074 147.929 Q 491.354 148.649 490.352 148.649 Z " fill-rule="evenodd" fill="rgb(255,255,255)"/></svg>