<?xml version="1.0" standalone="no"?><!-- Generator: Gravit.io --><svg xmlns="http://www.w3.org/2000/svg" xmlns:xlink="http://www.w3.org/1999/xlink" style="isolation:isolate" viewBox="0 0 982 803" width="982" height="803"><defs><clipPath id="_clipPath_DhZEHR9esfy9Um5v487L9UPjiskjvGwW"><rect width="982" height="803"/></clipPath></defs><g clip-path="url(#_clipPath_DhZEHR9esfy9Um5v487L9UPjiskjvGwW)"><g opacity="0.1"><path d=" M 958.122 465.441 C 958.122 466.041 958.122 466.64 958.122 467.239 C 958.022 477.73 957.423 488.22 956.224 498.711 C 956.224 498.81 956.224 498.81 956.224 498.91 C 956.124 499.81 956.024 500.609 955.924 501.508 C 955.724 503.007 955.624 504.405 955.324 505.904 C 953.027 523.788 949.13 541.471 943.835 558.656 L 943.835 558.656 C 936.642 581.934 926.551 604.214 913.763 624.895 C 909.866 631.189 905.67 637.383 901.174 643.278 L 901.174 643.278 C 898.776 646.375 896.378 649.472 893.881 652.47 C 892.082 654.568 890.284 656.666 888.486 658.664 L 887.387 659.963 C 877.796 670.553 867.405 680.344 856.415 689.436 C 838.432 704.322 819.049 717.31 799.367 729.299 C 798.268 729.999 797.069 730.698 795.97 731.297 C 795.871 731.397 795.771 731.397 795.671 731.497 C 768.895 747.682 741.221 762.269 712.647 773.958 C 681.376 786.747 649.105 796.138 615.935 800.134 C 569.778 805.829 523.021 801.233 477.163 793.241 C 438.998 786.647 401.232 777.655 364.266 766.265 L 358.172 764.367 C 354.975 763.368 351.878 762.369 348.68 761.27 C 329.698 754.976 310.815 747.982 292.232 740.289 C 245.475 721.007 200.916 697.129 159.054 668.755 C 153.759 665.158 148.464 661.461 143.269 657.765 C 136.075 652.57 128.882 647.175 121.788 641.68 L 117.392 638.283 C 98.909 623.796 81.625 607.91 65.64 590.726 C 44.16 567.348 25.776 540.972 13.687 510.799 C 11.789 506.104 9.991 501.208 8.492 496.313 L 8.292 495.813 C 7.493 493.316 6.794 490.818 6.094 488.22 C 5.095 484.524 4.196 480.727 3.497 476.931 C 3.297 476.231 3.197 475.432 3.097 474.733 C 0.799 461.944 -0.2 448.956 0.1 435.868 C 0.4 424.479 1.698 413.089 4.096 401.899 L 4.096 401.899 C 6.594 390.31 10.39 379.02 15.386 368.33 L 15.386 368.33 C 19.982 358.739 25.776 349.747 32.67 341.655 L 32.67 341.655 C 37.566 335.96 42.961 330.864 48.955 326.369 C 59.845 318.276 71.834 312.681 84.223 308.185 L 84.223 308.185 C 90.117 306.087 96.012 304.289 102.007 302.59 C 106.203 301.391 110.499 300.193 114.695 299.094 L 127.183 295.697 C 135.176 293.499 143.169 291.301 151.062 288.903 C 172.542 282.309 193.523 274.416 213.005 262.627 C 216.102 260.729 219.199 258.731 222.396 256.533 C 226.393 253.735 230.289 250.738 234.185 247.441 L 234.185 247.441 C 238.082 244.144 241.978 240.647 245.675 236.851 C 246.274 236.251 246.774 235.652 247.373 235.052 C 250.371 231.855 253.268 228.558 255.965 225.161 C 257.264 223.463 258.563 221.764 259.762 220.066 C 261.46 217.668 263.059 215.17 264.558 212.673 L 264.558 212.673 C 271.951 200.084 276.547 186.197 276.047 171.61 C 275.947 169.213 275.747 166.815 275.448 164.417 C 274.149 155.625 272.95 147.033 271.951 138.541 C 268.054 103.673 269.753 72.102 295.829 42.429 C 328.299 5.563 379.352 -1.931 425.81 0.967 C 560.087 9.459 682.375 86.089 789.776 177.405 C 799.068 185.298 808.259 193.29 817.351 201.383 C 819.649 203.381 821.947 205.479 824.245 207.577 C 841.229 222.863 857.914 238.749 873.499 255.733 C 874.798 257.132 875.997 258.531 877.296 259.929 C 878.095 260.829 878.795 261.628 879.594 262.527 C 884.489 268.022 889.185 273.617 893.781 279.412 C 906.07 294.698 916.86 311.083 926.051 328.367 C 940.238 355.442 949.829 384.715 954.425 414.987 L 954.425 414.987 C 956.124 425.977 957.323 437.067 957.822 448.157 C 958.022 451.454 958.122 454.651 958.122 457.948 C 958.122 458.947 958.122 460.046 958.122 461.045 C 958.122 462.444 958.122 463.942 958.122 465.441 Z " fill="rgb(156,39,176)"/></g><g opacity="0.07"><path d=" M 773.091 386.314 C 775.589 388.212 777.887 390.41 779.785 392.908 C 781.684 395.505 782.483 398.702 781.883 401.799 C 781.284 395.805 784.681 390.21 790.176 388.012 L 773.091 386.314 Z " fill="rgb(0,0,0)"/></g><g opacity="0.1"><line x1="828.241" y1="130.748" x2="842.228" y2="143.736"/></g></g></svg>