<?xml version="1.0" encoding="utf-8"?>
<!-- Generator: Adobe Illustrator 22.0.0, SVG Export Plug-In . SVG Version: 6.00 Build 0)  -->
<svg version="1.1" id="f7e01b52-fe13-4534-b7fc-d479bcd2a427"
	 xmlns="http://www.w3.org/2000/svg" xmlns:xlink="http://www.w3.org/1999/xlink" x="0px" y="0px" viewBox="0 0 982.9 803"
	 style="enable-background:new 0 0 982.9 803;" xml:space="preserve">
<style type="text/css">
	.st0{opacity:0.1;fill:#555555;enable-background:new    ;}
	.st1{opacity:7.000000e-02;enable-background:new    ;}
	.st2{opacity:0.1;enable-background:new    ;}
</style>
<title>exams</title>
<path class="st0" d="M959,465.5c0,0.6,0,1.2,0,1.8c-0.1,10.5-0.7,21-1.9,31.5c0,0.1,0,0.1,0,0.2c-0.1,0.9-0.2,1.7-0.3,2.6
	c-0.2,1.5-0.3,2.9-0.6,4.4c-2.3,17.9-6.2,35.6-11.5,52.8l0,0c-7.2,23.3-17.3,45.6-30.1,66.3c-3.9,6.3-8.1,12.5-12.6,18.4l0,0
	c-2.4,3.1-4.8,6.2-7.3,9.2c-1.8,2.1-3.6,4.2-5.4,6.2l-1.1,1.3c-9.6,10.6-20,20.4-31,29.5c-18,14.9-37.4,27.9-57.1,39.9
	c-1.1,0.7-2.3,1.4-3.4,2c-0.1,0.1-0.2,0.1-0.3,0.2c-26.8,16.2-54.5,30.8-83.1,42.5c-31.3,12.8-63.6,22.2-96.8,26.2
	c-46.2,5.7-93,1.1-138.9-6.9c-38.2-6.6-76-15.6-113-27l-6.1-1.9c-3.2-1-6.3-2-9.5-3.1c-19-6.3-37.9-13.3-56.5-21
	c-46.8-19.3-91.4-43.2-133.3-71.6c-5.3-3.6-10.6-7.3-15.8-11c-7.2-5.2-14.4-10.6-21.5-16.1l-4.4-3.4c-18.5-14.5-35.8-30.4-51.8-47.6
	c-21.5-23.4-39.9-49.8-52-80c-1.9-4.7-3.7-9.6-5.2-14.5l-0.2-0.5c-0.8-2.5-1.5-5-2.2-7.6c-1-3.7-1.9-7.5-2.6-11.3
	c-0.2-0.7-0.3-1.5-0.4-2.2C0.8,462-0.2,449,0.1,435.9c0.3-11.4,1.6-22.8,4-34l0,0c2.5-11.6,6.3-22.9,11.3-33.6l0,0
	c4.6-9.6,10.4-18.6,17.3-26.7l0,0c4.9-5.7,10.3-10.8,16.3-15.3c10.9-8.1,22.9-13.7,35.3-18.2l0,0c5.9-2.1,11.8-3.9,17.8-5.6
	c4.2-1.2,8.5-2.4,12.7-3.5l12.5-3.4c8-2.2,16-4.4,23.9-6.8c21.5-6.6,42.5-14.5,62-26.3c3.1-1.9,6.2-3.9,9.4-6.1
	c4-2.8,7.9-5.8,11.8-9.1l0,0c3.9-3.3,7.8-6.8,11.5-10.6c0.6-0.6,1.1-1.2,1.7-1.8c3-3.2,5.9-6.5,8.6-9.9c1.3-1.7,2.6-3.4,3.8-5.1
	c1.7-2.4,3.3-4.9,4.8-7.4l0,0c7.4-12.6,12-26.5,11.5-41.1c-0.1-2.4-0.3-4.8-0.6-7.2c-1.3-8.8-2.5-17.4-3.5-25.9
	c-3.9-34.9-2.2-66.5,23.9-96.2C328.6,5.2,379.7-2.3,426.2,0.6C560.6,9.1,683,85.8,790.5,177.2c9.3,7.9,18.5,15.9,27.6,24
	c2.3,2,4.6,4.1,6.9,6.2c17,15.3,33.7,31.2,49.3,48.2c1.3,1.4,2.5,2.8,3.8,4.2c0.8,0.9,1.5,1.7,2.3,2.6c4.9,5.5,9.6,11.1,14.2,16.9
	c12.3,15.3,23.1,31.7,32.3,49c14.2,27.1,23.8,56.4,28.4,86.7l0,0c1.7,11,2.9,22.1,3.4,33.2c0.2,3.3,0.3,6.5,0.3,9.8c0,1,0,2.1,0,3.1
	C959,462.5,959,464,959,465.5z"/>
<path class="st1" d="M773.8,386.3c2.5,1.9,4.8,4.1,6.7,6.6c1.9,2.6,2.7,5.8,2.1,8.9c-0.6-6,2.8-11.6,8.3-13.8L773.8,386.3z"/>
<path class="st2" d="M829,130.5l14,13C843,143.5,831,138.5,829,130.5z"/>
</svg>
